<svg width="266" height="229" viewBox="0 0 266 229" fill="none" xmlns="http://www.w3.org/2000/svg">
<path fill-rule="evenodd" clip-rule="evenodd" d="M214.135 94.3302C258.547 74.8388 218.469 -16.03 140.997 34.9244C96.3104 -23.4378 -13.3833 29.052 42.7459 88.2508C7.35714 82.1289 2.64874 130.131 35.8201 131.46C19.1118 140.403 8.38928 159.702 19.0424 185.27C29.6274 210.677 70.6262 217.625 96.9867 197.053C97.887 219.978 146.542 228.153 152.362 200.202C236.977 244.137 297.478 132.138 214.135 94.3302Z" fill="#E4DDDD"/>
<path d="M119.912 162.02H139.001L137.087 155.233L126.421 156.268L126.157 148.64H133.816L134.241 144.15L125.669 144.859L125.423 137.507L133.496 138.051L134.481 133.2L121.096 132.977L119.912 162.02Z" fill="#004F9C"/>
<path d="M137.281 139.578L144.211 139.521L142.834 162.128L150.512 161.931L149.888 139.65H155.348L156.852 134.001L138.197 133.099L137.281 139.578Z" fill="#004F9C"/>
<path d="M95.5151 157.811L91.3355 157.453L91.7126 132.574L82.8643 133.486L85.4886 157.289L74.5917 156.855L74.3251 133.486L67.6291 133.599L66.2227 162.736L87.974 161.879L87.8818 166.604H92.8695L95.5151 157.811Z" fill="#004F9C"/>
<path d="M113.892 146.166C113.322 145.714 110.599 144.9 109.979 144.598C114.542 141.664 120.587 130.113 97.9978 132.416L98.1524 162.241C102.403 162.448 110.776 162.444 113.98 159.897C115.959 158.315 117.087 156.343 117.179 153.835C117.32 150.632 116.21 148.063 113.892 146.166ZM104.225 135.676C108.664 134.908 109.503 137.23 109.546 138.93C109.606 141.105 107.78 142.666 104.297 143.009L104.225 135.676ZM112.297 153.688C111.496 158.063 107.043 157.711 104.779 157.828L104.821 147.379C106.605 147.495 108.913 147.907 110.464 149.192C111.757 150.252 112.646 151.752 112.297 153.688Z" fill="#004F9C"/>
<path d="M155.989 149.563C155.446 156.583 156.812 162.637 162.402 163.847C168.653 165.187 172.666 159.542 173.516 151.44C174.869 138.485 171.514 133.896 167.01 133.154C162.363 132.574 156.757 137.202 155.989 149.563ZM160.982 152.158C160.12 144.726 162.724 139.161 165.958 139.51C168.615 139.802 170.1 142.347 169.293 150.303C168.829 154.893 165.843 157.068 164.165 156.971C161.93 156.836 161.175 154.755 160.982 152.158Z" fill="#004F9C"/>
<path d="M189.965 145.394C191.637 143.688 193.116 142.459 193.116 139.86C193.116 136.407 190.599 132.428 183.713 132.617C183.713 132.617 179.567 132.617 176.64 132.805L177.529 139.33L176.393 162.34C182.875 162.34 188.302 162.34 188.302 162.34C193.619 162.34 197.153 158.534 197.153 153.339C197.155 149.025 193.62 146.881 189.965 145.394ZM181.196 136.852C182.672 136.777 184.435 136.777 184.435 136.777C185.687 136.706 188.304 137.449 188.304 139.191C188.304 140.904 187.525 143.517 183.896 143.766C183.896 143.766 182.271 143.766 181.106 143.766L181.196 136.852ZM185.774 157.84C185.774 157.84 183.609 157.84 182.087 157.84L182.324 148.425C184.253 148.31 186.543 148.31 186.543 148.31C188.302 148.239 191.455 150.821 191.455 153.271C191.455 155.721 189.965 157.84 185.774 157.84Z" fill="#004F9C"/>
<path d="M173.105 105.311C169.232 105.634 165.894 108.582 165.605 117.311C165.42 122.773 168.178 126.706 173.58 126.041C178.43 125.444 180.251 121.441 180.564 116.72C181.286 108.404 177.075 105.097 173.105 105.311ZM172.728 121.825C171.241 121.835 168.868 120.125 169.015 116.752C169.252 110.893 170.868 109.096 173.236 108.983C176.129 108.848 178.318 113.048 176.677 118.455C176.197 120.348 174.717 121.814 172.728 121.825Z" fill="#004F9C"/>
<path d="M165.187 105.901L151.516 107.287L151.089 110.297L156.371 110.223L156.075 125.379L160.979 125.495L159.981 109.866L164.976 110.091L165.187 105.901Z" fill="#004F9C"/>
<path d="M148.568 119.464C148.314 121.347 146.176 122.158 145.048 122.161C143.262 122.165 141.542 118.787 141.533 115.106C141.53 111.09 143.978 108.652 145.935 108.133C147.859 107.613 148.263 109.095 148.622 109.19L150.495 106.239C148.95 104.701 146.827 104.796 146.827 104.796C142.236 104.599 137.948 108.875 137.598 115.343C137.192 123.145 140.741 125.872 144.572 125.848C147.532 125.836 150.081 124.122 151.242 121.066L148.568 119.464Z" fill="#004F9C"/>
<path d="M108.274 119.882L110.066 119.833L114.604 110.873L114.444 125.786L120.693 125.442L118.145 105.221L114.444 105.448L109.316 115.441L103.1 105.254L99.6919 105.318L99.4097 126.248L104.857 125.762L103.514 108.477L108.274 119.882Z" fill="#004F9C"/>
<path d="M90.7062 111.533C94.2194 110.694 94.3258 108.711 94.2875 108.014C94.1145 104.456 87.556 105.464 80.7507 105.382V126.733C90.0938 126.93 97.3045 125.952 97.4675 119.079C97.5285 116.826 95.6386 112.978 90.7062 111.533ZM84.8324 107.25C89.4501 107.048 90.6467 108.213 90.0243 109.12C88.4307 111.448 84.6538 111.054 84.6538 111.054L84.8324 107.25ZM92.3665 118.316C92.1765 121.798 86.3226 121.329 84.04 121.249L84.5404 113.457C90.9756 114.349 92.5097 115.994 92.3665 118.316Z" fill="#004F9C"/>
<path d="M136.265 120.832L126.656 121.273L126.696 115.217L134.233 115.487L133.955 111.943L126.496 111.92L126.411 108.196L134.493 108.231L135.472 105.43L123.119 105.538L122.871 125.762L136.859 125.386L136.265 120.832Z" fill="#004F9C"/>
<path d="M107.699 100.936L107.621 90.6128L102.211 90.6737L103.687 62.9054L77.7506 62.5637L76.0139 69.0231L83.4599 68.5765C84.1362 72.7362 82.951 79.3756 77.7166 89.7465L68.5493 89.7423L70.5257 103.56L77.1352 102.662L77.141 95.7933L101.103 95.7749L99.9471 101.121L107.699 100.936ZM85.1839 90.2002C86.1069 85.3004 87.8437 78.23 87.8592 68.1582L95.5379 67.8421L95.7689 90.4838L85.1839 90.2002Z" fill="#004F9C"/>
<path d="M159.201 72.8652L150.439 72.7362L151.32 96.6057L141.733 96.8183L143.335 72.2995L134.151 72.7135L134.658 67.1842L159.188 65.7396L159.201 72.8652Z" fill="#004F9C"/>
<path d="M134.678 89.5126L118.693 90.9304L118.442 82.7116L130.277 82.55L130.844 77.137L118.335 78.0585L118.218 71.3652L130.076 71.8133L131.348 67.1644L112.551 65.8927L111.058 96.3902H135.858L134.678 89.5126Z" fill="#004F9C"/>
<path d="M168.374 97.3386L180.921 75.688L180.673 96.8807L189.92 96.2923L188.2 81.0272L188.178 66.549L182.438 66.6738L169.928 85.523L169.257 66.0231L163.035 65.5963L163.74 72.3576L160.594 96.7729L168.374 97.3386Z" fill="#004F9C"/>
</svg>
