<svg width="95" height="70" viewBox="0 0 95 70" fill="none" xmlns="http://www.w3.org/2000/svg">
<path fill-rule="evenodd" clip-rule="evenodd" d="M86.9865 18.0201C86.9706 17.8518 86.9881 18.0261 86.9865 18.0201C89.6839 23.2293 93.0876 17.9826 91.9818 15.5756C90.6986 12.7749 85.5835 15.1022 86.9865 18.0201Z" fill="#C7EDFF"/>
<path fill-rule="evenodd" clip-rule="evenodd" d="M10.2048 47.0455C10.2575 46.9929 10.2 47.0516 10.2 47.0516C9.15973 49.4781 12.0681 48.9672 12.5922 47.8914C13.2043 46.6353 10.8264 45.7218 10.2048 47.0455Z" fill="#59C8FD"/>
<g opacity="0.65">
<path fill-rule="evenodd" clip-rule="evenodd" d="M2.66705 38.693C2.54081 38.6464 2.67022 38.693 2.67022 38.693C7.25965 38.7727 4.57184 34.8256 2.49285 34.6994C0.0750949 34.5552 0.121451 38.5818 2.66705 38.693Z" fill="#FFB296"/>
</g>
<path d="M89.708 69.4637L90.0532 69.202L89.8998 68.8965L89.708 69.4637Z" fill="#CAEFFF"/>
<path d="M91.899 68.4937L92.2761 67.798C91.2183 67.6929 91.7855 67.3954 90.5423 67.9303C90.4256 68.3029 90.1237 69.1894 90.4608 69.3306C90.6222 69.0662 90.6126 68.5267 90.969 68.2533C91.0681 68.5432 90.7501 68.8994 90.8715 69.284C91.5539 68.8768 90.9834 68.7943 91.5794 68.2399L91.899 68.4937Z" fill="#CAEFFF"/>
<path d="M91.6831 67.3233L91.9898 67.6313C91.8988 67.499 91.9516 67.1265 91.6831 67.3233Z" fill="#CAEFFF"/>
<path d="M91.8218 66.8981C92.0247 66.4879 92.1222 67.0514 92.1845 67.0303L91.8458 66.3031L91.8218 66.8981Z" fill="#CAEFFF"/>
<path d="M92.5699 65.1522L92.5954 64.9374C92.4772 64.981 92.5315 65.0575 92.5699 65.1522Z" fill="#CAEFFF"/>
<path d="M92.8287 64.2626C92.6018 64.4009 92.6034 64.6324 92.5954 64.9374L92.6433 64.9192C92.9085 64.7194 93.2234 65.0605 92.9518 65.4422C92.8671 65.9034 92.4931 65.7216 92.6002 66.1844L93.1275 65.7877C93.3465 65.0725 92.9357 64.5496 92.8287 64.2626Z" fill="#CAEFFF"/>
<path d="M92.57 65.1522L92.5029 65.3897C92.61 65.307 92.5972 65.2259 92.57 65.1522Z" fill="#CAEFFF"/>
<path d="M92.1657 66.0206L92.1577 66.2731L92.3447 66.2852L92.1657 66.0206Z" fill="#CAEFFF"/>
<path d="M92.9805 62.7271C93.5398 62.8999 92.7871 63.8164 93.2138 64.0102C93.2649 63.3972 93.7444 62.942 94.0432 63.1148L93.9505 62.3815C93.762 62.1321 93.2937 62.4115 92.9805 62.7271Z" fill="#CAEFFF"/>
<path d="M94.5931 61.4215L94.478 61.2547L94.5931 61.4215Z" fill="#CAEFFF"/>
<path d="M93.1133 57.9626C93.5208 58.4239 93.6918 58.9513 93.9698 59.4802C93.7685 59.3509 93.5959 59.4336 93.4889 59.073C93.4937 59.7972 93.8707 59.8543 93.8787 60.4643C93.3626 60.6792 93.7221 59.4172 93.2827 59.8048C93.345 60.215 93.4377 60.8205 93.9283 61.1496L93.5495 61.8152L94.168 61.5973C94.3757 61.3133 93.6646 61.0488 94.0705 60.87C94.3134 60.7739 94.3917 61.0518 94.4732 61.2486C94.307 60.8144 94.8024 59.9925 94.6138 59.0565C94.4365 58.0829 93.5831 58.478 93.1133 57.9626Z" fill="#CAEFFF"/>
<path d="M93.7238 57.76L93.9123 57.6006L93.6343 57.745L93.7238 57.76Z" fill="#CAEFFF"/>
<path d="M92.4245 56.2634L93.0429 56.9561L92.8368 57.2265C92.9582 57.1589 93.2507 57.3182 93.3481 57.2565C93.7317 56.7277 92.848 56.2859 92.6195 55.8953C92.4341 54.6632 92.9118 55.8488 93.2171 55.2177C93.3177 55.5588 93.2043 55.6173 93.3242 56.0891C93.7029 55.129 92.6626 54.4635 92.2919 54.1149C92.3158 54.2651 92.1863 54.3643 92.3605 54.5791L91.9562 54.2125C91.7805 54.8661 92.065 55.2041 92.4245 56.2634Z" fill="#CAEFFF"/>
<path d="M92.9007 57.6833C92.7649 57.3994 92.7664 57.2776 92.8304 57.231C92.7185 57.3482 92.6498 57.4715 92.9007 57.6833Z" fill="#CAEFFF"/>
<path d="M92.1465 53.8865L92.2919 54.1118L92.1465 53.8865Z" fill="#CAEFFF"/>
<path d="M91.8287 54.5904L91.5825 54.0443L91.4771 54.3587C91.5426 54.4174 91.72 54.6551 91.8287 54.5904Z" fill="#CAEFFF"/>
<path d="M71.6331 44.3486C71.6603 44.5575 71.8696 44.6865 72.3458 44.7061C72.2515 44.9675 71.6475 44.8383 71.3423 44.9555C71.9399 45.2079 71.2895 45.2725 71.4109 45.5505C72.0965 45.6647 72.4529 45.3537 73.1831 45.5189C73.1368 45.5896 73.132 45.7098 73.2135 45.815C74.1259 45.7383 75.6712 45.7444 76.4942 46.111C77.3108 46.3304 77.9484 46.3169 78.8832 46.407C81.7867 47.1342 85.1377 47.7563 87.5874 49.9665L88.324 49.8372C88.2697 50.1332 88.9697 50.315 88.6421 50.5088L88.1898 50.1648C88.4855 50.8514 89.513 51.4298 89.9525 52.148C89.9716 52.0188 90.2624 51.6281 90.5005 51.7724C89.9428 52.0834 91.2037 52.5176 90.7067 53.1111C90.9576 53.9089 91.1845 52.8647 91.528 53.6655C91.894 53.5709 91.266 52.8497 91.4194 52.5687C91.8125 52.6634 91.7134 53.332 92.0266 53.1081C91.4593 51.7318 89.0208 50.0685 87.0601 49.0874L87.4452 48.9583C86.4368 48.3483 84.6967 47.8313 84.0847 46.9043C84.1741 47.2558 82.5346 46.2447 82.4579 46.9629C82.2422 46.7255 82.151 46.7255 81.7819 46.5497L81.6109 46.7315C81.0644 46.5587 81.253 46.2356 80.6026 46.1215C80.9398 46.5061 80.4508 46.4912 80.2016 46.697C79.564 46.2102 78.7777 45.7339 78.1769 45.3207C78.2088 45.4289 78.244 45.5491 78.4389 45.7264C78.0187 45.5266 78.0331 45.8255 77.8924 45.9021C77.4626 45.8375 77.584 45.4679 77.6447 45.2741C76.8729 45.0307 76.3823 45.7083 75.8406 45.3687L75.9892 45.7099C75.1694 45.6633 74.5431 45.19 73.6306 45.193C73.2615 44.7212 74.4232 44.9089 74.8259 44.7992C74.6565 44.679 74.273 44.5964 74.1691 44.4476C73.752 44.6144 73.0617 44.8263 72.5551 44.9705C73.0856 44.5363 71.9367 44.4192 71.6331 44.3486Z" fill="#CAEFFF"/>
<path d="M74.1705 44.4477L74.4565 44.311L74.1514 44.3081L74.1705 44.4477Z" fill="#CAEFFF"/>
<path d="M71.6324 44.3489L71.6213 44.296C71.528 44.3141 71.5534 44.3278 71.6324 44.3489Z" fill="#CAEFFF"/>
<path d="M76.6061 46.1561L76.4958 46.1124L76.3521 46.0765L76.6061 46.1561Z" fill="#CAEFFF"/>
<path d="M77.5522 44.8715L78.177 45.3236C78.1291 45.1703 78.0876 45.0352 77.5522 44.8715Z" fill="#CAEFFF"/>
<path d="M82.9725 46.5469C83.1594 46.5469 83.0956 46.4296 83.249 46.3709C82.9054 46.2507 82.7519 46.3094 82.9725 46.5469Z" fill="#CAEFFF"/>
<path d="M73.1944 44.2433L72.4945 44.2523L72.2324 44.3049L73.1944 44.2433Z" fill="#CAEFFF"/>
<path d="M59.1978 44.1638C59.7299 44.6446 60.6519 44.5125 61.3774 44.6928C62.7629 44.6808 61.6715 43.9114 62.9562 44.0376L62.6271 44.7649C63.9198 44.8941 65.7255 45.2396 66.9001 44.7032C66.9832 44.8054 67.1989 44.9466 66.8505 45.0172C67.7118 45.0848 67.4306 43.9836 68.546 44.3652C67.4163 44.7168 68.8384 44.852 68.4853 45.2892L68.3127 45.3237C69.0446 45.3553 70.0401 45.2155 70.5147 45.2997C70.5595 45.1059 70.1792 44.7574 70.8264 44.81C70.5691 44.7394 70.7049 44.5304 70.7513 44.3381C70.0561 44.4793 69.7141 44.3066 69.2763 44.52C68.9391 44.221 69.5383 44.4644 69.1979 44.1684L68.6339 44.3472C68.2472 44.2421 69.0717 44.1353 68.4661 44.0121C68.3766 44.1534 67.8589 44.2615 67.3843 44.1728L67.5329 44.0993C67.1541 44.1609 66.6524 43.9761 66.7771 44.4193L66.3983 43.949L66.4382 44.2449C65.4507 44.0165 65.1679 43.2849 63.8319 43.4968C64.1276 43.62 63.8239 43.7431 63.6513 43.7792C64.1611 44.0406 64.3448 43.6379 64.8578 43.656C64.8962 43.9519 63.9853 44.1985 64.583 44.4419C63.9469 44.0197 63.2902 44.3426 63.1016 43.5793C62.2946 43.426 61.9383 43.737 61.1361 43.4621L61.1761 43.357C60.9459 43.8123 60.5401 43.055 59.8481 43.4562L60.2684 43.62C60.2157 43.8108 60.0016 43.7898 59.6995 43.7838C59.7459 43.7132 59.7459 43.7131 59.6676 43.605C59.5189 43.931 58.5777 43.8272 58.4419 43.9069C58.8222 44.0331 59.3527 43.8392 59.8257 43.8212C59.5557 43.994 59.5781 44.287 59.1978 44.1638Z" fill="#CAEFFF"/>
<path d="M67.8203 43.9669L67.5327 44.1022L67.8203 43.9669Z" fill="#CAEFFF"/>
<path d="M55.6516 42.8985C55.1642 42.7016 55.8561 42.6401 55.4246 42.3787C54.851 42.4929 55.8929 42.9977 55.3048 43.2321C55.0412 42.9526 54.4419 43.1856 54.2278 43.1435C54.5154 42.9993 54.501 42.5244 54.4355 42.4102C54.2054 42.4899 53.8315 42.1669 53.5039 42.0782C54.2373 42.5455 52.7672 42.0811 53.4144 42.5529C53.2769 42.8234 52.446 42.7933 52.2079 42.4763C52.2942 42.2944 52.5275 42.4146 52.7336 42.4763C53.0133 42.1712 52.291 42.1188 52.291 41.7567C51.3562 42.0467 48.9624 41.0986 49.2916 42.1023C49.477 42.3787 49.7854 42.29 50.0906 42.3396C49.3491 41.9174 50.2648 41.9325 50.3878 41.8138C50.677 42.0512 51.3594 41.9955 51.1181 42.2329L50.4533 42.3442C52.1392 43.133 54.6321 43.6993 56.7382 43.9698L55.8401 43.782C55.9935 43.5941 56.4202 43.6588 56.7733 43.6062L56.4505 42.9933C56.6998 43.0789 56.9619 43.0397 56.9012 43.2275C57.2639 43.0547 57.1489 42.8925 57.0019 42.6762C57.6826 42.6942 57.7481 42.9226 58.3266 42.6582C57.3279 42.0211 57.3183 42.8805 56.1598 42.2479L55.6516 42.8985Z" fill="#CAEFFF"/>
<path d="M58.1238 43.0548L57.8042 43.2834L58.2372 43.2187L58.1238 43.0548Z" fill="#CAEFFF"/>
<path d="M57.4604 44.1726L57.6586 43.9052C57.1536 43.7384 57.1808 43.9112 57.4604 44.1726Z" fill="#CAEFFF"/>
<path d="M51.6601 41.5254L50.9985 41.4111L51.3677 41.6426C51.4028 41.5254 51.5738 41.5284 51.6601 41.5254Z" fill="#CAEFFF"/>
<path d="M46.6787 40.9002C47.5416 41.3705 48.069 41.2488 48.9111 41.9895C49.5503 41.8934 48.9926 41.2759 49.3458 41.0805C48.9207 40.7875 48.6906 41.3601 48.1345 41.2249C48.1185 40.8492 47.3499 40.9694 46.952 40.6088C46.9312 40.7515 46.8497 40.8747 46.6787 40.9002Z" fill="#CAEFFF"/>
<path d="M45.025 37.9974C44.7773 37.6984 44.3091 37.5361 44.2292 37.2086C44.429 37.132 44.6431 37.2642 44.7501 37.4731C45.0298 37.0974 44.4114 37.1861 44.397 36.7038C44.3778 36.7564 44.4098 36.9157 44.2484 36.8766C43.769 35.9811 43.63 36.5355 43.2784 35.2133C43.0771 35.075 42.9972 34.8963 42.7143 35.0165C42.7591 34.1886 42.9284 34.5461 43.1122 33.5785C42.9364 33.6431 42.5705 34.0279 42.1902 34.1045C42.5369 32.6606 41.9137 32.7102 42.1997 31.8207C42.2333 31.9154 42.3515 32.0265 42.3308 32.2548C42.8405 32.1226 42.1263 31.5532 42.3004 31.0634L42.7638 31.1129C42.7143 30.6847 42.4506 29.9004 42.8198 29.3821L43.0451 29.5264C42.7846 28.3905 43.256 27.1254 43.2512 26.1548L43.6875 25.7326C43.7498 24.3878 43.1266 26.9451 42.7495 25.8648C43.6268 25.9234 42.6919 25.1345 43.2576 24.4824C43.6939 24.236 43.1921 25.2637 43.6875 24.9903C43.3183 24.7108 43.6891 24.5742 43.6923 24.1505C44.0582 24.3563 44.0007 23.3675 44.3666 23.7477L44.2356 22.1925C44.552 22.0723 44.6926 21.6847 44.7709 21.3857C44.4289 22.0874 44.3107 20.9336 43.7498 21.6623C43.2816 22.8943 42.7782 24.9752 42.1726 26.4867C42.6999 26.7692 41.9776 27.5024 42.3915 27.8255L41.8418 27.9427C41.7747 28.9779 42.195 27.7488 42.3548 28.0283C42.3468 28.4746 41.9425 28.7885 41.7443 28.7269C41.6165 29.4571 41.8785 28.8262 42.1518 29.2319L41.5014 29.6601C41.3672 32.0281 42.2381 35.06 43.4414 37.452L43.6395 37.0974C44.3394 38.1161 45.4277 38.1627 45.776 39.2896L46.2858 39.2595C46.0014 39.2805 46.0893 39.8141 45.6562 39.8171C46.019 39.9192 46.2219 40.2452 46.5814 40.3594L46.1867 39.8545C46.7364 39.8575 46.9873 40.2828 46.9522 40.5999C47.9189 40.8027 46.8627 39.7569 46.9266 39.3903C45.5188 39.1589 46.2794 38.2604 45.4341 37.6203C44.8237 37.2417 45.204 37.8953 45.025 37.9974Z" fill="#CAEFFF"/>
<path d="M45.4326 39.7764L45.6564 39.8137L45.4326 39.7764Z" fill="#CAEFFF"/>
<path d="M44.7725 21.3857L44.9019 21.0627C44.8635 20.9155 44.8444 21.1153 44.7725 21.3857Z" fill="#CAEFFF"/>
<path d="M46.952 40.6081L46.9537 40.5982H46.9424L46.952 40.6081Z" fill="#CAEFFF"/>
<path d="M47.9863 40.1372L47.6939 39.9853L47.6523 40.152L47.9863 40.1372Z" fill="#CAEFFF"/>
<path d="M47.0286 18.7364L46.8672 18.6151L47.0286 18.7364Z" fill="#CAEFFF"/>
<path d="M54.7996 14.342L54.5967 14.3519L54.7996 14.342Z" fill="#CAEFFF"/>
<path d="M50.0235 23.2519C49.3764 23.2895 48.5119 23.2985 47.9797 23.5479L48.0597 23.363C47.7017 23.4216 46.5256 23.4863 47.176 23.9731L47.3837 23.8408C48.2594 23.7056 47.927 24.2466 48.5726 24.463C49.3971 24.4539 49.9117 23.8439 50.5941 24.0107C50.9025 24.0016 50.8465 24.1954 50.7459 24.3366C51.4634 24.4132 51.7478 23.8588 52.2192 23.8032C52.4925 25.2652 54.3254 23.3134 55.4823 23.9204C56.0736 23.5598 57.0899 23.5854 57.6316 22.7906C57.4366 23.345 58.3347 22.3939 58.4242 22.8311C58.1893 22.2031 60.6071 21.4113 59.7681 20.5924C60.6902 19.8817 59.848 20.5955 60.6342 19.5978C60.7493 19.6504 60.6598 19.8442 60.6438 19.9329C61.0753 19.5603 60.5224 19.0523 61.1791 18.8645C61.6825 17.966 60.9666 18.606 60.9107 17.99C61.2047 17.0419 61.3134 17.356 61.8806 16.7925C61.43 16.6873 61.5866 16.0323 61.1695 15.6011C61.1743 15.7453 61.2191 16.3929 60.9187 16.0172C60.8116 14.9309 60.2395 15.3892 59.6722 14.8964C59.6818 14.1392 60.3658 15.4899 60.0781 14.5824C60.6646 14.8784 61.0928 15.251 61.5035 15.553C61.3262 14.4607 59.9663 13.6689 58.8716 13.6599C58.2948 13.457 59.2663 13.4691 58.8013 13.3189C57.7131 12.7795 57.0435 13.6568 56.2126 13.3714L56.3916 13.0874C55.8802 13.4871 54.426 13.0259 53.4912 13.5773C53.6478 13.6825 53.7485 13.756 53.6446 13.8882C53.4593 13.1775 52.4541 14.6335 51.3499 14.4172C51.5944 14.7687 50.976 15.4945 50.5317 15.8085C50.2936 15.8025 50.2153 15.6177 50.1466 15.5125C51.1086 15.2841 50.6356 14.5644 51.2684 14.034C50.7778 14.5118 49.7423 14.9144 49.4531 15.4688L49.4211 15.0556C48.6109 15.5259 49.2214 16.0474 48.3489 16.4351L48.2226 16.1735C46.8116 17.389 45.1065 18.9441 44.8652 20.4932C44.9931 20.693 45.8911 20.3551 46.0637 20.4167C46.3626 19.6414 46.3003 19.0163 46.516 18.3567L46.8675 18.6151C46.6694 18.298 47.1072 17.6235 46.6055 17.7993C46.8292 17.2704 47.2015 17.7497 47.462 17.1502C47.7656 17.4852 47.5419 17.7692 47.8295 18.0126L48.0325 17.5047C48.0469 17.7331 48.3713 17.3876 48.3888 17.619C48.6877 16.5717 49.4403 16.785 50.1482 16.1509L49.6273 16.3688C49.4723 16.175 49.7663 16.0277 49.9309 15.8459C50.3735 15.9872 50.4806 15.8671 50.992 15.7319C51.2716 15.3803 51.2189 14.7311 51.8469 14.6019C51.914 15.0661 52.9255 14.5554 53.1492 14.8949C53.1333 14.4202 54.2071 14.4111 54.2343 14.1226C54.5427 13.9724 55.0173 13.9965 55.0365 14.2369L54.8 14.339L55.1275 14.324L55.0812 14.4291C55.3672 14.4141 55.3433 14.0776 55.7332 14.2684C55.7364 14.3916 55.5382 14.4096 55.3816 14.4742C56.1263 14.4396 56.7112 13.75 57.336 14.1692C57.4926 13.9078 58.3411 14.1046 58.2692 13.5757C58.4785 13.798 58.2884 14.1573 58.9292 14.2189C59.4246 13.9815 59.4437 14.6531 59.995 14.6185C59.1992 14.7147 59.8927 14.704 59.2344 14.8438C59.4853 15.0782 60.1756 14.9971 60.492 15.5681L60.1964 15.8025C60.3658 15.9257 60.7892 16.151 60.4856 16.3839L60.7908 16.3404C60.6582 16.7776 60.5639 17.4582 60.1708 17.8369L60.4616 18.5881C59.5891 19.2011 59.5476 20.2814 59.3974 21.1498C59.1577 21.3962 58.7598 21.7074 58.6751 21.6142L58.747 21.201C58.4833 21.6142 57.7019 21.5361 57.7914 22.0845C57.4478 22.4661 57.2992 22.0077 56.9684 22.1219C56.3676 23.1932 54.1352 22.5832 54.017 23.5133C54.45 23.5223 55.2841 23.5194 56.0608 23.2114C55.893 23.3902 56.1231 23.5253 55.8291 23.6365C55.0157 23.9656 54.5203 23.6576 53.7117 23.8859L53.7277 23.2488C52.3726 22.8236 51.075 24.1849 50.0235 23.2519Z" fill="#CAEFFF"/>
<path d="M59.1909 20.5339L58.5933 20.7336L58.8458 20.8719C58.9145 20.7142 59.0199 20.591 59.1909 20.5339Z" fill="#CAEFFF"/>
<path d="M58.8442 20.8719L58.7451 21.2039L58.9081 20.9064L58.8442 20.8719Z" fill="#CAEFFF"/>
<path d="M47.6859 23.0552C47.5628 23.0056 47.3216 22.9049 47.0547 22.9289C47.2065 23.0341 47.5389 23.1258 47.6859 23.0552Z" fill="#CAEFFF"/>
<path d="M46.9697 23.1107L47.2446 23.267L47.3005 23.2025L46.9697 23.1107Z" fill="#CAEFFF"/>
<path d="M32.8422 14.3631L32.1518 13.6148C32.2956 13.3924 31.7252 12.4443 32.1758 12.6757C31.5334 12.2685 31.6149 10.9795 31.0684 11.561C31.8785 14.2549 33.6028 18.0728 36.6598 19.8623L36.0941 19.6745C37.7416 20.3957 37.7687 21.5346 39.5057 21.4505L39.0631 21.814C39.6624 22.4601 40.8353 21.7465 41.3562 22.5924L41.3642 22.3609L41.8276 22.6405L41.7813 22.5201C42.4125 22.5201 42.7241 22.6644 43.2179 23.004C43.2035 23.1798 42.9414 22.98 42.7593 22.9634C42.9574 23.2038 43.4896 23.0627 43.913 23.1483C44.2087 23.3737 43.8427 23.3826 43.7756 23.4412C45.1131 23.5299 45.5765 24.2196 46.6759 23.6021C46.7958 23.4759 46.4011 23.2699 46.8821 23.2939C46.0927 22.8943 45.3448 23.0626 44.5218 23.0746L44.7344 23.1272C43.9226 23.7117 44.3125 22.8898 43.2563 22.8868C43.6014 22.696 44.0169 22.8012 44.2358 22.672C43.3122 21.8186 42.5276 22.5608 42.0881 21.6067L42.176 21.6157C42.0482 21.4895 41.7126 21.5211 41.4425 21.4985C41.4777 21.6157 41.695 21.751 41.8261 21.8802C41.5544 21.8562 41.2843 22.1206 41.1341 22.2243C40.9999 21.8051 40.6835 22.2362 40.3032 21.9101C40.2936 21.566 40.8145 21.7901 41.0558 21.6924H40.4214C39.9133 21.5361 40.1098 21.1965 39.9883 20.9111C39.501 20.89 40.1146 21.195 39.6416 21.3047C39.4323 20.591 37.2446 19.6608 36.3162 18.9682C36.6214 19.2176 36.6613 18.8211 36.9474 19.1907C36.8819 19.0179 36.3497 18.7159 36.1612 18.8827C35.4613 18.4665 34.8396 17.6536 34.5823 16.9775L34.4929 17.2885C33.7818 17.0121 33.9655 15.8161 33.1969 15.0348L33.2033 15.0557C33.0179 14.7732 32.1662 14.8034 32.1199 14.1258C32.4682 14.1904 32.5545 14.5194 32.8422 14.3631Z" fill="#CAEFFF"/>
<path d="M31.148 10.9359L31.5538 11.2154C31.5666 10.8338 31.0776 10.4295 30.8491 10.5437C30.953 10.7901 30.8348 11.1627 31.0441 11.1717C31.0904 11.1176 31.2167 11.0966 31.148 10.9359Z" fill="#CAEFFF"/>
<path d="M31.132 3.77788C31.0872 3.62762 30.9435 3.63966 30.8604 3.56604C30.6318 5.08957 30.7038 6.98725 30.3442 7.59576C30.2579 8.12464 30.8332 8.20879 31.0169 8.83984L30.6846 9.15696C30.9498 9.48601 30.6702 10.6007 31.2231 10.1485C31.271 10.1019 30.9099 9.88102 30.985 9.57L31.1943 9.59714L31.0521 8.92256L31.3333 9.11936C31.6338 8.18931 30.4289 8.51227 30.6782 7.34632L31.1975 7.36136C31.2918 6.61011 31.1464 6.21358 31.5187 5.57952C31.5187 5.57952 31.2614 5.54939 31.3541 5.68462C31.3158 5.81083 31.092 5.95806 30.9466 5.85739C30.6446 4.66891 31.2407 6.05725 31.5219 5.28496C31.1384 4.27228 31.4165 2.38816 31.955 1.96596C31.5315 2.33858 31.3877 1.59336 31.565 1.05697C31.8079 0.863148 31.8143 1.31233 31.9406 1.43553C32.062 1.20415 32.241 1.04182 32.2346 0.772867C31.8751 1.01327 31.5571 0.699238 31.5539 0.0531616C30.8843 1.2747 31.5283 2.5338 31.132 3.77788Z" fill="#CAEFFF"/>
<path d="M30.8027 3.32011L30.8603 3.56681L30.9865 3.0477L30.8027 3.32011Z" fill="#CAEFFF"/>
<path d="M46.4072 47.0336C53.889 46.1291 55.6453 44.5739 51.3562 44.604C50.6771 44.607 47.7879 45.2291 46.2667 45.8978C37.2716 49.8659 35.0456 48.9207 28.2973 49.0964C26.7089 49.143 25.5119 50.575 25.5647 50.6666C30.389 50.2264 28.5465 50.6456 38.1632 49.696C40.1703 49.4992 45.621 47.1313 46.4072 47.0336Z" fill="#A3BA3A"/>
<path fill-rule="evenodd" clip-rule="evenodd" d="M64.2778 23.9852C62.6382 17.3231 53.1478 19.6594 58.6113 25.8197C53.1254 23.1753 47.1793 26.3005 46.6791 31.3895C46.3915 34.2833 48.4018 39.6503 53.7071 38.7458C45.4758 41.4863 49.2614 48.0042 52.36 50.4758C54.5108 52.1932 57.0005 51.9992 58.8766 50.701C56.9734 57.4683 63.4149 58.367 66.5565 56.6586C68.2616 55.7286 69.1021 53.7527 69.452 51.6432C76.1716 54.9562 84.3773 51.2855 82.1928 45.3717C89.5899 45.5715 90.1652 35.6265 81.9595 35.0014C81.9452 34.9894 81.9387 34.9715 81.9275 34.9579L78.7092 29.4032C83.7253 20.7728 68.9471 12.3588 64.2778 23.9852Z" fill="#FFE000"/>
<path d="M78.7126 29.4031L76.0566 34.4469C91.4373 38.1296 86.1992 20.5579 78.7126 29.4031Z" fill="#FFE000"/>
<path fill-rule="evenodd" clip-rule="evenodd" d="M60.6026 27.7533C56.9096 28.2521 57.0279 29.8432 57.0391 31.6673C52.9274 30.7523 57.9419 25.5386 60.6026 27.7533Z" fill="#F6921E"/>
<path fill-rule="evenodd" clip-rule="evenodd" d="M72.8142 31.2226C73.2361 27.7187 70.7113 26.4222 69.6934 26.9766C71.6733 23.4487 75.7673 29.3505 72.8142 31.2226Z" fill="#FAAF40"/>
<path fill-rule="evenodd" clip-rule="evenodd" d="M67.5679 22.9139C70.5849 20.0907 76.1954 21.781 77.2708 25.6605C75.2142 23.4984 71.3775 20.6812 67.5679 22.9139Z" fill="#FAAF40"/>
<path fill-rule="evenodd" clip-rule="evenodd" d="M60.9823 46.1921C57.5466 46.1425 55.057 43.1691 56.5815 41.1242C56.6214 42.8521 57.39 45.5745 60.9823 46.1921Z" fill="#FAAF40"/>
<path fill-rule="evenodd" clip-rule="evenodd" d="M63.6607 35.0721C63.4258 34.7851 63.1286 34.9084 62.9624 34.2158C63.9691 31.1492 67.0677 34.9639 63.6607 35.0721Z" fill="#404751"/>
<path fill-rule="evenodd" clip-rule="evenodd" d="M60.9907 36.531C61.0147 35.4161 62.2931 35.069 62.7469 35.7211C63.8879 36.4633 61.216 38.1657 60.9907 36.531Z" fill="#404751"/>
<path fill-rule="evenodd" clip-rule="evenodd" d="M65.8963 36.6393C67.0373 37.5348 65.3546 38.6286 64.5332 38.5204C63.7006 38.603 63.2661 38.1854 63.6016 37.3756C64.2105 36.2817 64.8273 36.5747 65.8963 36.6393Z" fill="#404751"/>
<path fill-rule="evenodd" clip-rule="evenodd" d="M68.7858 33.6642C69.4186 34.2592 69.6296 34.7972 69.6408 35.3111C68.5749 36.4199 67.7647 36.4229 66.8858 35.4778C66.2179 34.6409 68.0555 33.5666 68.7858 33.6642Z" fill="#404751"/>
<path fill-rule="evenodd" clip-rule="evenodd" d="M64.3893 40.7801C65.3226 41.5073 65.0541 41.1768 65.5559 42.212C65.6294 43.5973 63.5824 43.2623 62.793 42.3758C62.8857 41.7898 63.2324 40.2903 64.3893 40.7801Z" fill="#E08357"/>
<path fill-rule="evenodd" clip-rule="evenodd" d="M74.1023 36.6451C73.9889 38.086 72.1832 38.7428 71.4337 38.1102C69.0703 36.1149 72.8943 33.7318 74.1023 36.6451Z" fill="#E08357"/>
<path fill-rule="evenodd" clip-rule="evenodd" d="M54.9774 45.1766C55.2794 44.9572 55.0876 44.9676 55.3929 44.7512C56.6009 48.4083 60.3786 50.2653 63.8957 47.8448C63.0855 52.6648 54.6274 48.9553 54.9774 45.1766Z" fill="#F6921E"/>
<path fill-rule="evenodd" clip-rule="evenodd" d="M67.4642 29.7637C68.6707 28.7751 70.1615 29.5353 69.8435 30.3211C69.0749 31.1956 69.4249 30.9431 68.3238 31.4164C67.5009 31.17 66.7387 30.3482 67.4642 29.7637Z" fill="#E08357"/>
<path fill-rule="evenodd" clip-rule="evenodd" d="M81.0391 38.9755C81.1909 38.2918 80.9896 38.7846 81.4418 38.7576C85.0277 41.2172 81.6783 44.6565 78.9585 45.7954C79.521 43.7911 83.7796 43.2125 81.0391 38.9755Z" fill="#FAAF40"/>
<path fill-rule="evenodd" clip-rule="evenodd" d="M69.6934 40.7126C69.1917 39.9673 70.1489 39.4684 71.2148 39.6202C72.9278 40.8417 70.4684 42.3353 69.6934 40.7126Z" fill="#404751"/>
<path fill-rule="evenodd" clip-rule="evenodd" d="M77.4181 42.0393C79.9621 43.8934 74.4522 48.8622 70.9766 46.8518C74.1278 46.8699 77.2966 44.9121 77.4181 42.0393Z" fill="#FAAF40"/>
<path fill-rule="evenodd" clip-rule="evenodd" d="M54.332 29.5293C52.5678 32.7777 53.9149 37.2117 56.7961 39.0898C53.3668 39.8906 49.8113 31.5652 54.332 29.5293Z" fill="#F6921E"/>
<path fill-rule="evenodd" clip-rule="evenodd" d="M39.0599 39.3018C39.0375 39.6924 37.6057 39.8591 37.0928 41.5735C36.8594 41.7207 36.7476 42.7215 36.9377 42.9153C37.2349 44.3322 37.847 46.0765 39.3188 46.2373C40.415 44.1172 40.22 40.7487 39.0599 39.3018Z" fill="#668C0C"/>
<path fill-rule="evenodd" clip-rule="evenodd" d="M35.167 50.6455C35.6544 51.0737 34.4048 52.9053 36.1226 55.2763C36.0747 55.7015 37.2684 56.8704 37.7174 56.8433C39.8763 57.9702 42.7942 59.0625 44.5105 57.524C42.8581 54.0622 38.2495 50.8018 35.167 50.6455Z" fill="#A3BA3A"/>
<path fill-rule="evenodd" clip-rule="evenodd" d="M21.6797 28.2087C17.0407 33.8521 6.98142 24.0152 17.6544 22.3459C12.5169 16.668 16.9832 12.7058 21.937 20.917C19.2763 10.126 29.6201 14.1287 26.095 21.0492C31.6448 16.2487 33.7238 19.4386 33.9108 21.2191C34.2112 24.1099 31.5058 25.5688 29.4747 25.5703C32.5716 26.4628 34.2271 30.8816 31.8557 32.2324C29.4683 33.5906 27.5572 32.2909 26.3347 30.9492C23.9697 38.0005 18.6419 33.203 21.6797 28.2087Z" fill="#F9ABE0"/>
<path fill-rule="evenodd" clip-rule="evenodd" d="M25.1088 25.9638C23.7074 26.4656 21.2497 25.3854 22.429 23.7537C24.7652 22.0784 27.3828 25.4965 25.1088 25.9638Z" fill="white"/>
<path d="M15.0579 44.3545C13.2171 43.3944 12.5043 42.834 10.7913 43.6889C10.1313 43.9879 9.45701 44.9241 9.48737 45.4995C9.20612 47.6271 12.784 47.4092 13.9889 47.0576C13.5926 47.3506 8.83375 49.1235 12.5746 51.7093C15.0499 53.4206 15.8138 49.4555 16.3347 48.3046C15.9592 50.1978 18.1964 51.6116 18.5176 51.5996C18.7365 51.822 21.1815 52.5296 21.2662 49.6358C21.4547 48.0161 20.1859 46.6774 18.8835 45.9322C24.5644 46.5722 22.006 41.2128 18.1101 42.8039C20.1268 37.8697 10.4477 39.6772 15.0579 44.3545Z" fill="#99D9FF"/>
</svg>
