<svg width="266" height="230" viewBox="0 0 266 230" fill="none" xmlns="http://www.w3.org/2000/svg">
<path d="M228.439 97.563L230.394 99.0616L231.423 98.9099L228.439 97.563Z" fill="white"/>
<path d="M236.55 106.077C237.723 106.813 238.895 107.554 239.956 108.43C239.353 105.399 241.633 107.772 237.182 102.741C235.162 101.536 230.61 99.2006 230.71 100.282C232.191 101.012 234.503 101.935 236.356 103.569C235.175 103.393 233.105 101.774 231.713 101.658C234.516 104.473 233.964 102.734 237.28 105.52L236.55 106.077Z" fill="white"/>
<path d="M241.594 107.665C241.088 107.666 240.574 107.659 240.453 107.916C240.956 107.914 242.754 108.949 241.594 107.665Z" fill="white"/>
<path d="M243.646 109.209C245.586 111.019 243.127 109.709 243.263 109.973L246.375 111.046L243.646 109.209Z" fill="white"/>
<path d="M251.35 117.087L252.203 117.982C252.091 117.517 251.765 117.335 251.35 117.087Z" fill="white"/>
<path d="M254.77 121.294C254.462 120.176 253.414 119.228 252.202 117.982L252.242 118.167C252.839 119.632 251.398 118.959 249.948 117.037C248.069 115.328 248.87 114.89 246.945 113.684L248.469 116.37C251.337 119.082 253.431 120.32 254.77 121.294Z" fill="white"/>
<path d="M251.35 117.087L250.321 116.073C250.645 116.636 251.006 116.889 251.35 117.087Z" fill="white"/>
<path d="M247.634 112.971L246.562 112.099L246.524 112.613L247.634 112.971Z" fill="white"/>
<path d="M259.712 128.891C258.321 128.942 256.489 123.273 255.3 123.21C257.214 126.195 257.869 129.053 256.888 128.714C257.713 129.712 258.32 130.827 258.963 131.934C259.916 132.905 260.072 131.051 259.712 128.891Z" fill="white"/>
<path d="M259.93 137.053L260.387 137.795C260.215 137.421 260.051 137.113 259.93 137.053Z" fill="white"/>
<path d="M264.963 155.611C264.823 152.571 263.978 149.606 263.313 146.737C263.872 147.488 264.162 147.115 264.471 149.148C264.342 145.129 263.122 144.807 262.727 141.582C263.638 140.331 263.927 147.246 264.556 145.194C264.181 142.879 263.259 139.441 261.651 138.02C261.485 136.79 261.474 135.48 261.127 134.279L260.463 135.884C260.572 137.395 262.306 138.407 261.765 139.542C261.393 140.127 260.843 138.766 260.406 137.83C261.464 139.957 261.382 144.108 262.053 148.621C262.527 153.446 264.527 152.225 264.963 155.611Z" fill="white"/>
<path d="M263.578 155.897L263.068 156.46L263.743 156.088L263.578 155.897Z" fill="white"/>
<path d="M263.846 165.817C264.093 164.243 263.912 162.604 263.946 161.033C264.131 160.551 264.432 160.31 264.713 160C264.398 160.137 264.11 158.842 263.844 159.017C262.366 160.968 263.445 164.679 262.813 167.18C260.591 173.439 262.308 166.729 260.622 168.886C261.122 167.148 261.398 167.155 262.138 164.738C260.017 168.284 259.424 173.226 258.582 175.743C259.04 175.126 259.424 175.085 259.841 173.711C259.641 174.596 259.434 175.485 259.104 176.327C260.994 174.142 262.451 172.001 263.846 165.817Z" fill="white"/>
<path d="M265.132 157.435C265.19 159.216 264.882 159.843 264.731 159.98C265.096 159.565 265.472 158.988 265.132 157.435Z" fill="white"/>
<path d="M257.984 176.993C258.178 176.768 258.368 176.333 258.583 175.741C258.401 175.999 258.201 176.362 257.984 176.993Z" fill="white"/>
<path d="M260.357 175.167C259.904 176.171 259.308 177.114 258.792 178.088L259.861 177.156C260.028 176.72 260.679 175.22 260.357 175.167Z" fill="white"/>
<path d="M150.926 216.944C151.44 217.116 152.57 216.603 154.218 214.697C154.477 215.388 152.054 217.585 150.998 218.728C153.88 216.92 151.419 219.311 152.462 219.231C155.902 217.468 155.029 213.482 159.828 213.516C159.581 213.61 159.55 213.885 159.975 214.266C164.725 215.769 172.843 217.456 177.533 218.514C182.075 219.384 185.579 219.481 190.631 219.064C207.354 219.162 224.482 212.997 239.027 202.551L240.273 200.059C241.386 200.05 243.455 197.289 243.602 198.204C242.767 198.738 242.228 199.526 241.287 200.232C244.96 198.592 248.744 193.313 251.822 189.949C251.336 190.232 250.095 190.156 250.774 188.966C251.573 190.051 254.074 184.788 255.908 184.405C258.65 180.687 255.114 183.685 257.643 179.698C257.302 178.946 255.014 183.39 254.048 183.77C254.293 182.198 256.529 180.348 255.712 180.105C251.917 186.297 244.141 198.237 234.307 204.858L234.91 203.582C230.475 207.587 221.648 211.87 216.784 212.219C218.103 212.673 208.477 214.584 209.666 215.715C208.121 215.722 207.728 216.02 205.593 216.234L205.13 216.83C202.103 217.316 202.492 216.644 199.052 217.076C201.402 217.529 198.93 217.974 197.958 218.637C193.851 218.398 189.178 217.73 185.718 216.97C185.984 217.191 186.278 217.53 187.483 217.826C185.098 217.492 185.478 218.108 184.816 218.311C182.475 218.165 182.801 217.306 182.95 216.874C178.782 216.411 176.689 217.4 173.613 216.427L174.577 217.299C170.2 216.548 166.738 214.981 162.141 213.448C160.293 211.666 166.115 214.207 168.2 214.127C167.295 213.735 165.347 213.074 164.841 212.498C163.81 212.385 162.425 212.189 160.965 211.965L159.86 211.791L159.306 211.702L159.168 211.679L159.099 211.668L159.065 211.662H159.061C154.615 212.695 157.827 211.95 156.835 212.181V212.182L156.829 212.189L156.821 212.203L156.67 212.427L155.512 214.142C156.343 211.588 152.326 216.135 150.926 216.944Z" fill="white"/>
<path d="M164.839 212.497C165.451 212.559 165.95 212.606 166.252 212.603C165.806 212.505 165.377 212.416 164.737 212.135C164.64 212.232 164.701 212.359 164.839 212.497Z" fill="white"/>
<path d="M150.926 216.944L150.777 216.919C150.454 217.262 150.577 217.197 150.926 216.944Z" fill="white"/>
<path d="M178.154 218.68L177.533 218.512L176.732 218.352L178.154 218.68Z" fill="white"/>
<path d="M182.126 215.939C183.022 216.254 184.283 216.603 185.715 216.969C185.324 216.62 185.002 216.346 182.126 215.939Z" fill="white"/>
<path d="M211.056 214.056C211.891 213.702 211.332 213.634 211.867 213.253C210.089 213.703 209.532 214.092 211.056 214.056Z" fill="white"/>
<path d="M159.989 210.548L159.772 210.484L159.663 210.453L159.609 210.437L159.581 210.428L159.574 210.427H159.573H159.571C162.916 209.649 155.013 211.487 155.827 211.298L155.825 211.3L155.815 211.31L155.525 211.643L154.941 212.31L153.774 213.648L152.993 214.714L154.555 212.837L155.332 211.906L155.72 211.442L155.817 211.326L155.828 211.312L155.835 211.305C163.294 209.569 157.902 210.824 159.568 210.437H159.57H159.571H159.577L159.614 210.447L159.689 210.467L159.989 210.548Z" fill="white"/>
<path d="M94.7879 210.733C95.3975 214.139 98.301 218.439 101.362 221.304C107.495 225.866 103.117 220.823 108.934 224.551L106.991 225.467C113.132 229.385 123.88 231.461 129.652 228.814C130.182 228.929 131.47 228.953 129.683 229.533C134.346 228.474 131.705 227.003 137.616 225.672C132.481 228.434 139.735 226.063 138.612 227.541L137.765 227.939C141.67 226.66 146.031 223.473 148.243 222.058C148.065 221.627 145.807 222.295 148.678 220.361C147.476 221.096 147.648 220.333 147.497 219.927C144.792 222.199 143.041 222.987 141.302 224.317C139.28 224.613 142.423 223.589 140.402 223.896C139.62 224.423 138.875 225.082 138.02 225.479C135.999 225.981 139.834 224.296 136.752 225.148C136.514 225.528 134.156 226.882 131.623 227.125L132.295 226.799C130.46 227.459 127.711 227.477 128.738 228.296L126.378 227.47L126.809 228.099C121.419 227.938 119.701 226.365 113.284 225.014C114.706 225.735 113.22 225.571 112.347 225.39C114.855 226.775 115.761 226.204 118.348 226.58C118.662 227.311 113.899 227.101 117.082 228.174C113.698 226.643 110.373 226.045 109.802 223.825C106.18 221.712 104.44 221.193 101.648 217.828L101.916 217.751C100.622 217.767 99.9741 214.853 97.6603 212.51C97.9594 213.224 98.1805 213.996 98.5477 214.685C98.0529 214.866 97.5596 213.81 96.7444 212.422C96.984 212.513 96.9826 212.51 96.9372 211.955C95.7931 211.972 94.0946 207.056 93.6777 206.483C94.242 208.607 95.5549 211.014 97.0251 213.071C96.061 212.14 95.5861 212.786 94.7879 210.733Z" fill="white"/>
<path d="M133.575 226.183L132.295 226.799C132.841 226.635 133.325 226.432 133.575 226.183Z" fill="white"/>
<path d="M79.0563 212.569C76.3073 213.413 79.527 211.71 76.9041 212.284C74.3536 213.769 80.4471 212.199 78.0681 213.908C76.2236 214.068 73.778 215.804 72.6424 216.227C73.7496 215.342 72.7217 214.615 72.1688 214.585C71.199 215.175 68.6612 215.256 66.8522 215.695C71.4698 215.192 63.1674 217.029 67.3654 216.689C67.242 217.489 62.9263 218.634 61.0748 218.402C61.1527 217.942 62.5889 217.821 63.7543 217.628C64.5653 216.655 60.77 217.621 60.0327 216.96C55.8149 219.172 41.5721 217.273 45.3107 219.503C46.8079 220.129 48.1973 219.917 49.8915 219.878C45.2072 219.214 49.9666 218.899 50.3551 218.578C52.33 219.098 55.7327 218.46 54.9699 219.089C53.9179 219.416 52.8531 219.581 51.7742 219.742C62.1253 220.893 76.1102 216.903 86.3521 211.265L81.7273 213.365C82.0577 212.654 84.2098 211.622 85.7736 210.628L83.0076 210.552C84.3488 210.03 85.5085 209.293 85.6064 209.735C86.905 208.442 86.0643 208.568 84.9457 208.65C88.0633 206.705 88.8105 206.775 90.8577 204.698C85.0874 206.776 86.8639 208.151 80.1352 210.227L79.0563 212.569Z" fill="white"/>
<path d="M90.7471 205.85L89.7703 207.126L91.585 205.737L90.7471 205.85Z" fill="white"/>
<path d="M90.0341 209.391C89.8399 209.186 90.5871 208.622 90.3872 208.425C87.7657 209.71 88.2392 209.874 90.0341 209.391Z" fill="white"/>
<path d="M56.3098 217.136C55.1004 217.231 53.8826 217.479 52.6689 217.415C53.4572 217.575 54.2511 217.621 55.0493 217.65C54.9798 217.38 55.8688 217.221 56.3098 217.136Z" fill="white"/>
<path d="M30.2256 214.679C35.0899 217.066 37.4462 217.209 43.1456 219.277C46.1995 218.968 42.0979 217.57 43.4958 217.059C40.7539 216.227 40.778 217.57 37.7341 217.024C36.9359 215.881 33.4198 215.704 30.9231 214.052C31.1103 214.475 30.9657 214.768 30.2256 214.679Z" fill="white"/>
<path d="M18.3021 201.151C16.9907 199.296 15.3418 197.53 14.8413 195.66C15.3701 195.672 16.0705 196.93 16.6943 198.141C17.0743 196.984 15.3729 195.922 14.8115 193.381C14.8129 193.624 15.0753 194.527 14.562 193.987C12.2497 188.144 12.122 191.13 10.0252 183.197C9.46941 182.13 9.18439 180.994 8.59461 181.344C8.2912 176.633 8.80021 178.885 8.73358 173.357C8.33377 173.598 7.6589 175.512 6.88055 175.6C7.18254 167.552 6.32051 167.343 7.69007 162.372C7.60784 162.933 7.78791 163.648 7.50861 164.976C8.66551 164.469 7.80492 160.758 8.87108 158.092L9.7359 158.613C10.2279 156.171 11.3593 151.746 13.6391 149.331L13.7255 150.212C14.9547 147.219 16.9453 144.253 19.1825 141.653C20.2784 140.331 21.4211 139.087 22.5752 137.954L23.4046 137.093L23.8087 136.669C23.9504 137.171 22.6007 132.294 23.1706 134.358H23.1664L23.1579 134.357L23.1395 134.353L23.1055 134.346L23.036 134.33L22.897 134.299L22.6205 134.238L20.4897 133.795C19.571 133.389 18.7472 132.772 17.8937 132.283C10.5441 130.272 24.8776 135.162 19.1867 134.676C19.0152 132.65 15.0412 134.088 11.5195 130.967C10.1344 129.313 15.5374 132.916 13.9623 131.042C12.7104 131.321 11.7889 130.179 9.8451 128.933C10.6844 128.673 6.41413 125.616 8.13105 125.889C5.99731 124.357 4.05917 122.395 2.48829 120.047C2.43583 118.631 1.60368 116.443 1.25917 114.712C2.19773 119.105 -0.449239 113.717 0.513422 118.902C2.25302 126.196 14.7817 136.302 21.9996 135.338C22.0719 136.872 17.7449 139.603 17.5634 141.42C17.1154 141.324 16.4108 141.663 15.9854 141.606C12.4906 146.564 17.372 140.889 16.8078 142.34C15.2993 144.468 13.52 145.795 13.3186 145.376C10.8829 148.984 13.3186 145.978 12.6707 148.156L10.1598 149.993C3.20002 162.565 6.11074 181.631 12.8012 195.257L13.0365 193.875C15.5572 200.515 20.0629 202.723 23.311 207.909L25.3512 208.673C24.2184 208.261 25.5114 210.414 23.7534 209.694C25.3455 210.767 26.9632 211.998 28.7141 212.912L26.0261 210.659C28.4065 211.485 30.4253 213.17 30.9173 214.035C35.8908 215.612 28.7567 211.489 28.4108 210.105C21.7926 207.185 23.6343 204.807 19.1754 200.307C16.6022 197.208 18.6934 201.125 18.3021 201.151Z" fill="white"/>
<path d="M22.7783 209.175C23.181 209.423 23.5014 209.586 23.7537 209.691L22.7783 209.175Z" fill="white"/>
<path d="M1.25649 114.709C1.16291 114.193 1.02959 113.58 0.948773 112.75C0.730438 112.087 0.822651 113.178 1.25649 114.709Z" fill="white"/>
<path d="M30.9218 214.051L30.9149 214.032L30.8638 214.021L30.9218 214.051Z" fill="white"/>
<path d="M34.8759 213.709L33.1973 212.919L33.3206 213.41C33.8182 213.566 34.3542 213.627 34.8759 213.709Z" fill="white"/>
<path d="M5.66999 95.9751L5.29858 95.7455C5.33686 95.9681 5.42613 96.0957 5.66999 95.9751Z" fill="white"/>
<path d="M21.9841 58.1904L22.1485 59.3231C22.1571 58.9616 22.0791 58.5604 21.9841 58.1904Z" fill="white"/>
<path d="M115.181 9.04215C118.55 10.1934 122.769 12.3427 125.353 13.2472L124.904 13.4641C126.598 14.3205 132.064 17.5629 129.291 14.5048L128.251 14.234C124.097 12.0975 125.969 11.6197 122.915 9.53981C118.986 7.416 115.964 7.99443 112.623 6.15276C111.025 5.61117 111.422 5.29076 112.007 5.15749C108.415 3.62773 106.562 4.49115 104.003 3.93538C103.779 0.222259 92.3577 2.18726 86.9589 0.0280086C83.345 0.013831 78.4864 -0.205924 73.9566 0.858816C76.3158 -0.194582 69.6381 1.17357 70.5327 0.217993C69.5374 2.05116 57.2454 1.81299 57.1589 4.67546C51.0498 5.90324 56.9534 4.81579 50.0517 6.77939C49.9525 6.52561 51.0866 6.08754 51.5148 5.87204C48.6013 6.38386 47.9335 8.55159 45.3206 8.55726C40.1627 11.1418 44.7436 9.58518 42.1576 11.8196C36.9686 14.6806 38.331 13.7052 34.978 14.8025C35.297 16.0317 32.1722 17.9316 30.6297 20.4793C31.055 19.8753 34.2564 17.4226 32.6019 19.4769C27.8212 24.3115 29.3849 23.9315 26.2729 29.2382C23.4941 31.2854 29.6018 23.9584 25.737 28.0544C27.4114 24.3384 29.4487 22.0175 30.2965 19.7803C26.2786 23.6522 22.764 29.7642 21.41 35.6281C20.1142 38.7216 21.4271 33.8148 20.4176 36.276C18.2116 42.0208 19.7498 45.5184 19.2281 50.1587L18.5277 49.1677C19.4337 52.0387 18.8864 59.8378 21.2725 65.007C21.3987 64.2442 21.4851 63.7395 21.8935 64.3817C20.1865 64.8368 24.8849 71.4096 26.2871 76.6397C26.6614 76.2257 27.5716 77.1245 28.5768 78.4714C29.0787 79.1463 29.6075 79.9332 30.1051 80.7328L30.2909 81.0319L30.3363 81.1071L30.342 81.117C26.8472 86.0366 29.3707 82.4809 28.591 83.5783H28.5882H28.5839H28.5627H28.5215L28.3557 83.574L27.7021 83.5485L26.4828 83.4691C25.4265 83.1217 25.6534 82.7332 25.679 82.4398C27.3973 82.03 27.0102 84.124 29.6529 81.5026C29.2148 80.8178 28.781 80.3472 28.3287 79.9204C27.4256 79.0669 26.4573 78.3906 25.2579 76.5518C26.5027 77.669 26.9889 81.0716 28.8745 81.402C26.5211 81.0957 24.1563 81.0603 22.6449 81.7068L23.8202 80.7484C18.5759 81.341 19.7754 83.0933 14.843 84.4785L15.0173 83.7243C5.28723 88.4823 -1.36493 101.322 0.238557 109.919C0.648291 110.604 2.04905 106.573 2.51975 106.478C2.86001 101.799 3.09537 98.8192 4.4947 95.262L5.29998 95.7497C5.03203 94.6751 7.38552 90.6897 5.50273 92.4818C7.02257 89.6562 7.48757 91.0414 9.58728 88.1194C10.0197 88.9899 8.71679 90.5948 9.32076 91.1619C9.8269 90.3127 10.3926 89.4974 11.0235 88.7275C10.6052 89.6165 12.5547 87.7862 12.1365 88.6709C15.7333 84.47 18.5858 84.8486 23.6614 83.6818C22.6619 83.7569 21.6397 83.7626 20.6487 84.0007C20.5353 83.4109 22.2975 83.1147 23.6317 82.8552C24.4256 83.1827 25.0197 83.3911 25.7725 83.4846C26.1496 83.5158 26.5636 83.6264 27.0541 83.7327L27.8523 83.9072L28.3004 84.0078L28.418 84.0347L28.4776 84.0489L28.5074 84.056H28.5102C28.0196 84.7465 32.7805 78.0447 30.7644 80.8802L30.7631 80.876L30.7602 80.8689L30.7545 80.8533L30.6567 80.591C29.1227 78.4984 27.5844 77.6378 25.9908 74.4635C27.1846 74.7498 24.3547 68.8037 24.9304 67.9049C23.5353 67.5986 22.6902 61.5575 21.9275 61.2541C21.2725 59.4777 21.0584 56.8889 21.5816 56.8463C21.6553 57.1129 21.8467 57.6303 21.9856 58.1932L21.7177 56.3643C21.8652 56.5216 21.9431 56.4493 21.9956 56.6535C21.8042 55.0387 20.8656 55.111 21.3264 52.9545C21.6397 52.9545 21.5589 54.0845 21.8807 54.982C21.6142 50.7372 19.9016 47.3558 21.2598 43.8029C20.7281 43.0274 21.9063 38.0454 20.558 38.8492C21.2286 37.5676 21.8807 38.2864 23.0149 34.7618C22.764 32.3388 25.0423 31.1394 25.7484 28.3507C24.8849 32.1574 25.9681 28.5236 25.3075 31.8284C26.7025 29.8308 27.4695 25.9235 30.5631 22.708C31.0182 22.5265 31.2223 22.7151 31.6817 22.5279C32.4317 21.0534 33.3405 19.2487 35.0348 18.768L34.4478 18.4065C36.8396 16.5889 40.1571 13.9561 43.3173 12.9935C44.1765 12.0053 45.0272 10.9434 46.0083 10.0615C51.0597 8.76284 57.0483 5.66645 60.7898 3.4675C62.6669 3.11164 65.5039 2.72175 65.5365 2.9968C65.1268 3.18536 64.4406 3.53131 63.6226 3.88576C66.3376 3.23358 69.7827 3.5781 71.1792 2.29077C73.9821 1.61592 73.3399 2.80683 75.4453 2.78414C81.1716 0.674509 92.1947 3.99774 94.1399 2.24538C91.802 1.86401 87.3502 0.960884 82.7978 1.01618C84.0085 0.752473 83.0814 0.266206 84.7642 0.280383C89.3748 0.38388 91.6149 1.45996 96.1843 1.74068L95.4159 3.07481C102.621 5.66223 110.365 4.64709 115.181 9.04215Z" fill="white"/>
<path d="M59.0061 5.2156C60.1035 5.11919 61.2022 5.06249 62.3151 5.0951L61.8318 4.57196C60.8691 4.85551 59.8965 5.16597 59.0061 5.2156Z" fill="white"/>
<path d="M61.8332 4.57198L63.6224 3.88153C62.9249 4.02189 62.2571 4.19485 61.7212 4.43729L61.8332 4.57198Z" fill="white"/>
<path d="M126.488 15.2675C127.015 15.7637 128.178 16.5549 129.312 17.3984C128.762 16.6002 127.189 15.5284 126.488 15.2675Z" fill="white"/>
<path d="M129.779 17.2241L128.645 15.9977L128.35 15.9892L129.779 17.2241Z" fill="white"/>
<path d="M216.173 19.2798C217.763 20.1277 219.462 20.8975 221.037 21.8687C221.539 22.7562 226.298 26.7075 224.313 25.8568C227.438 27.4008 230.76 33.8615 230.418 30.8431C225.544 24.337 218.207 17.5076 208.844 13.6655C199.556 9.83187 188.814 9.0691 179.844 11.2014C180.781 10.7959 181.756 10.5591 182.73 10.2756C173.455 12.6461 169.296 11.4198 162.875 16.2557L163.406 14.7827C159.149 16.0573 156.374 19.5095 151.847 20.5544L152.482 20.7713C151.423 21.3398 150.903 21.3738 149.831 21.9466L150.361 21.9112C147.778 23.7826 146.187 24.8162 143.366 26.1843C142.972 25.9773 144.513 25.2684 145.273 24.6673C144.66 25.0288 140.41 27.2505 141.992 28.2117C141.108 26.4721 142.456 27.9168 142.754 28.0416C137.983 22.4358 136.511 18.9693 131.325 16.9689C130.737 16.8937 132.344 18.6631 130.26 17.0582C133.5 20.5289 136.684 22.7349 139.697 25.9632L138.97 24.9863C140.699 25.837 141.038 26.4537 141.414 27.3242C141.027 27.4419 143.098 28.9844 140.913 28.2018C141.592 27.853 142.423 27.32 143.498 26.4211C142.182 27.6361 141.265 29.8166 140.39 28.0841C145.749 29.5033 147.285 23.224 151.718 23.6153L151.327 23.8833C152.234 23.5813 153.544 22.5038 154.731 21.6815C154.223 21.7056 152.93 22.2741 152.01 22.579C153.204 21.7538 153.509 20.7174 153.805 20.1872C155.579 20.0653 155.606 18.9041 158.169 18.1399C159.31 18.4065 156.438 19.6357 155.725 20.3786L158.377 18.6461C160.989 17.4339 161.255 18.1697 162.711 18.0039C164.774 16.6811 161.23 18.1272 162.795 16.7505C165.93 16.2387 178.368 12.2647 184.741 11.5473C182.564 11.8238 184.042 12.3697 181.407 12.4675C182.373 12.5526 185.674 11.9103 185.686 11.3602C190.047 10.6286 195.727 11.3219 199.579 12.7765L198.534 11.9769C202.168 11.7728 206.895 14.6253 212.449 16.9902L212.34 16.9136C214.029 17.8536 216.36 17.3786 219.14 19.8966C217.912 19.8101 216.37 18.6106 216.173 19.2798Z" fill="white"/>
<path d="M231.935 34.0005L230.222 32.7089C231.255 34.6356 233.522 36.5071 233.69 35.8932C232.842 34.654 232.006 32.8095 231.508 32.8024C231.554 33.0832 231.314 33.2108 231.935 34.0005Z" fill="white"/>
<path d="M238.759 74.1586C238.738 74.9965 239.068 74.8661 239.191 75.2588C241.675 66.4233 240.201 55.3364 239.93 51.7849C239.541 48.7523 238.294 48.4914 236.91 45.0349L237.063 43.1805C235.994 41.4125 233.984 35.5033 233.794 38.0368C233.764 38.3147 235.223 39.3072 235.614 41.0397L235.11 40.9532L236.71 44.5742L235.747 43.5916C236.668 48.877 238.667 46.6328 239.583 53.343L238.491 53.4749C239.037 57.8331 239.6 60.0774 238.851 63.9351C238.851 63.9351 239.397 63.9805 239.211 63.2362C239.337 62.4975 239.673 61.532 240.042 62.0453C240.688 68.8193 239.466 61.0216 238.817 65.6478C239.665 71.3571 236.845 82.3221 234.239 84.6146C236.004 82.4624 234.951 86.462 233.071 89.228C231.979 90.297 233.062 87.9704 233.037 87.3693C232.196 88.6155 231.318 89.4747 230.51 90.7478C232.166 89.5385 232.114 91.0045 230.201 94.1547C235.808 88.2611 236.838 81.4814 238.759 74.1586Z" fill="white"/>
<path d="M239.115 76.6511C239.269 75.85 239.262 75.4772 239.191 75.2589C238.987 76.308 238.692 77.333 238.342 78.2702L239.115 76.6511Z" fill="white"/>
</svg>
