<svg width="103" height="54" viewBox="0 0 103 54" fill="none" xmlns="http://www.w3.org/2000/svg">
<path d="M16.7185 50.7786C16.7121 52.2405 16.5778 52.8684 17.7508 53.6332C18.1838 53.9322 19.0499 54.03 19.4271 53.8151C20.9595 53.2607 19.5693 51.1361 18.9126 50.5141C19.2497 50.6614 22.1022 52.9797 22.5416 49.7944C22.8356 47.6879 19.8953 48.5728 18.9397 48.6464C20.3475 48.2302 20.5249 46.3716 20.4035 46.1748C20.477 45.9659 20.1062 44.2201 18.1231 45.1561C16.963 45.5903 16.5044 46.8255 16.4548 47.8818C14.9096 44.1691 12.1834 47.5737 14.614 49.4248C10.579 49.8711 15.1636 55.2125 16.7185 50.7786Z" fill="#FF9A60"/>
<path d="M73.9041 42.8483C75.8712 43.87 76.6271 44.4711 78.4584 43.5621C79.1615 43.2421 79.8821 42.2443 79.8518 41.6282C80.1458 39.3625 76.3298 39.5894 75.045 39.968C75.4685 39.651 80.5438 37.7579 76.5488 35.0023C73.9089 33.1768 73.0955 37.4093 72.541 38.6353C72.9357 36.616 70.5515 35.1045 70.2079 35.1135C69.9746 34.8821 67.3667 34.1278 67.2756 37.2139C67.0711 38.9418 68.4278 40.3693 69.8197 41.1611C63.7537 40.4835 66.4879 46.202 70.6474 44.5041C68.4901 49.7719 78.8275 47.8396 73.9041 42.8483Z" fill="#86D2FF"/>
<path fill-rule="evenodd" clip-rule="evenodd" d="M7.58584 15.5283C6.19399 15.9625 0.735269 14.78 1.30575 12.2738C1.59978 10.9997 3.05396 10.8915 3.91048 11.2491C5.54523 11.9357 6.4113 14.0017 7.34932 14.9168C8.54622 16.0782 10.4958 16.8265 11.9563 17.6048C13.5927 18.4763 15.197 19.298 16.5761 19.582C15.9337 19.1628 15.5933 17.9503 14.8151 17.3523C14.0673 16.7738 12.8703 16.5575 12.033 15.9264C9.51775 14.0303 8.89936 10.7322 12.4517 11.0462C15.7691 12.5457 14.1535 15.5327 15.3361 17.4634C18.0223 21.8598 23.8118 22.0973 27.4967 23.3805C26.4532 22.6532 26.0713 21.4167 25.0119 20.736C24.1442 20.1876 22.6325 20.1545 21.4835 19.4619C20.5583 18.9014 19.419 17.8632 19.1122 17.0504C18.6871 15.9536 19.9431 13.9686 21.4228 14.0663C24.4334 14.2661 25.7997 18.5798 25.4002 20.467C26.6355 21.5563 27.2587 23.0197 28.5387 23.6042C29.6876 24.1331 30.9724 23.5517 32.0702 24.1647C29.0644 24.5704 25.8812 23.3789 22.7268 22.4504C21.0712 23.0754 19.4301 23.8446 17.7315 24.082C16.4115 25.867 12.9374 27.4566 11.1301 25.7813C9.74945 24.5072 11.1157 22.9266 12.6738 22.7884C14.0896 22.6532 15.9529 23.1294 17.3671 23.801C18.9139 23.508 20.8955 22.9761 22.1212 22.2684C19.5037 21.2978 16.8734 20.2612 14.2351 19.0697C12.2264 19.5836 10.1714 19.6798 8.11155 19.6948C6.44325 20.7421 3.06675 22.8696 1.1971 20.8622C0.748064 20.3844 0.679281 19.4092 1.14589 18.7992C2.74229 16.7303 5.96705 18.3125 8.1531 19.2952C9.90449 19.2456 12.1161 19.3807 13.5271 18.8203C11.5536 17.7881 9.58333 16.7393 7.58584 15.5283ZM6.85073 14.9619C5.01943 13.9732 3.80818 13.3978 2.2805 11.8712C2.71356 13.0071 5.46847 14.7996 6.85073 14.9619ZM1.72115 19.3867C1.66362 19.5069 1.69241 19.7307 1.82824 19.615C3.56845 20.0432 5.25273 19.9291 6.91783 19.6422C5.51799 19.534 3.431 19.8479 1.72115 19.3867ZM11.3395 11.7826C12.1705 13.3002 13.2043 14.7935 14.0305 16.3111C13.6294 14.756 12.5364 13.2686 11.3395 11.7826ZM16.6336 24.1002C15.3728 23.9589 13.4712 24.6515 11.8908 24.2053C11.7549 24.2263 11.6255 24.3224 11.5025 24.4727C13.2539 24.7446 14.9573 24.5344 16.6336 24.1002ZM24.0579 19.7098C23.5545 18.1157 22.1052 16.6027 20.3458 15.1167C21.5443 16.6492 23.0464 18.1638 24.0579 19.7098Z" fill="#A3BA3A"/>
<path fill-rule="evenodd" clip-rule="evenodd" d="M43.678 7.4374C49.0217 10.1314 50.992 15.5015 50.6628 21.0247C62.0644 23.4783 60.8436 40.8096 47.5675 40.724C43.5389 49.6308 26.2008 49.9028 25.2771 37.8888C14.3453 34.2467 14.1455 16.9363 28.4939 16.4194C27.2427 8.70556 37.2797 4.20552 43.678 7.4374Z" fill="#FFA888"/>
<path d="M44.0554 6.43372C44.2536 6.5194 44.2728 6.33157 44.3192 6.31354C43.95 6.22485 44.0411 6.48032 44.0554 6.43372Z" fill="#FFA382"/>
<path d="M40.5428 5.88237L40.6163 5.81467L40.0874 5.96054L40.5428 5.88237Z" fill="#FFA382"/>
<path d="M37.3472 5.89819C37.6827 6.17079 38.4786 5.6195 39.0667 5.83968L39.1593 5.91611L39.4262 5.68244C38.7071 5.60905 37.833 5.87273 37.3472 5.89819Z" fill="#FFA382"/>
<path d="M35.4644 5.51872C35.6114 5.61792 35.1113 5.68557 35.8895 5.48716L35.8064 5.46918L35.4644 5.51872Z" fill="#FFA382"/>
<path d="M35.8061 5.46859C36.1577 5.39978 35.5489 5.4059 35.8061 5.46859V5.46859Z" fill="#FFA382"/>
<path d="M34.2817 6.03133L34.6748 5.75775C34.5597 5.72619 34.1618 5.86297 34.2881 5.75775C33.8566 5.99374 33.9845 6.02231 34.2817 6.03133Z" fill="#FFA382"/>
<path d="M33.9688 6.40364L34.1701 6.27447C34.1189 6.26395 34.0566 6.27437 33.9688 6.40364Z" fill="#FFA382"/>
<path d="M34.603 5.9996L34.1699 6.276C34.253 6.30004 34.2961 6.39319 34.3712 6.1588C34.368 6.26097 34.4256 6.14084 34.603 5.9996Z" fill="#FFA382"/>
<path d="M34.8857 5.94093C35.1494 5.91088 35.4658 5.83576 35.0791 6.10471C35.8812 5.7967 35.6959 5.58784 34.8857 5.94093Z" fill="#FFA382"/>
<path d="M37.2366 6.24888L37.5674 6.28962L37.8294 6.13916C37.6984 6.21281 37.2015 6.15118 37.2366 6.24888Z" fill="#FFA382"/>
<path d="M31.6133 7.17285C31.6309 7.2465 31.8497 7.23162 31.928 7.28423L32.1613 7.0257C31.9935 7.08432 31.6932 7.24049 31.6133 7.17285Z" fill="#FFA382"/>
<path d="M31.9282 7.28418L31.583 7.66567C31.9601 7.41926 31.9937 7.32925 31.9282 7.28418Z" fill="#FFA382"/>
<path d="M34.0442 6.75749L34.7025 6.2338L33.9019 6.81627L34.0442 6.75749Z" fill="#FFA382"/>
<path d="M29.9932 8.31833L30.1179 8.02939L29.9038 8.54703L29.9932 8.31833Z" fill="#FFA382"/>
<path d="M29.1651 9.34409C29.1987 9.09167 28.7912 9.44316 28.8727 9.21478C28.657 9.51378 28.5564 9.82184 28.4717 10.0893C28.6059 9.83236 28.82 9.5905 29.1651 9.34409Z" fill="#FFA382"/>
<path d="M28.3149 10.5265L28.4716 10.0892L28.3149 10.5265Z" fill="#FFA382"/>
<path d="M30.8606 8.13295C30.8014 8.12694 30.6671 8.08942 30.4019 8.2247L30.6991 8.24873L30.8606 8.13295Z" fill="#FFA382"/>
<path d="M30.7073 8.24728H30.6977C30.5203 8.36753 30.3972 8.45308 30.3413 8.48765C30.3892 8.45608 30.4995 8.38557 30.7073 8.24728Z" fill="#FFA382"/>
<path d="M30.902 8.10605L30.8623 8.13231L30.902 8.10605Z" fill="#FFA382"/>
<path d="M32.7687 7.08426C32.5818 7.34308 32.1663 7.77199 32.7224 7.58389C32.8183 7.35818 32.4971 7.46647 32.7687 7.08426Z" fill="#FFA382"/>
<path d="M31.2617 8.14806L31.7155 7.88064C31.6772 7.84609 31.5525 7.84307 31.6372 7.71686L31.2617 8.14806Z" fill="#FFA382"/>
<path d="M31.0939 8.34055L31.2617 8.14807L31.0923 8.24734L31.0939 8.34055Z" fill="#FFA382"/>
<path d="M29.0561 9.90006L28.6631 10.5521L29.2894 9.87457C29.2655 9.80545 29.2591 9.63862 29.0561 9.90006Z" fill="#FFA382"/>
<path d="M29.8265 9.05099L29.8027 9.0964L29.8265 9.05099Z" fill="#FFA382"/>
<path d="M27.5737 13.0989L27.6225 13.0683L27.592 13.0508L27.5737 13.0989Z" fill="#FFA382"/>
<path d="M29.3524 9.85486C29.5265 9.6986 29.5745 9.56787 29.6097 9.43265L29.29 9.87283L29.3524 9.85486Z" fill="#FFA382"/>
<path d="M28.0562 11.2807L28.3038 10.9548C28.2047 11.0344 28.0258 11.2191 28.0562 11.2807Z" fill="#FFA382"/>
<path d="M29.7084 9.12076L29.7237 9.09003C29.6459 9.12076 29.6672 9.12661 29.7084 9.12076Z" fill="#FFA382"/>
<path d="M29.71 9.12162L29.6094 9.43269L29.8027 9.0976L29.71 9.12162Z" fill="#FFA382"/>
<path d="M28.6925 14.0785C28.4672 14.0199 28.3552 13.4594 28.7707 13.0868C28.7995 12.6346 28.1124 12.7203 27.625 13.0688C27.7097 13.1004 27.7464 13.1184 27.7257 13.6172C27.8407 13.4565 28.3313 12.6285 28.3377 13.0567C28.2098 13.6788 28.0581 13.5286 27.9606 13.8291C28.1923 13.6067 28.2802 14.6764 28.6222 14.5592L28.5103 14.0198C28.5614 14.0168 28.6414 14.2167 28.6925 14.0785Z" fill="#FFA382"/>
<path d="M27.9923 12.1448L28.0483 11.9359C27.9284 12.1537 27.7958 12.2904 27.5401 12.5639C27.5002 12.9305 27.5433 13.0132 27.5928 13.0508L27.9923 12.0652V12.1448Z" fill="#FFA382"/>
<path d="M28.401 11.0373C28.5161 11.2837 28.4154 11.7766 28.7222 11.5828C28.9507 11.0314 28.6791 11.093 28.8373 10.767C28.4074 11.6534 28.8181 10.4319 28.4234 11.0404L28.6614 10.5505L28.3019 10.9562L28.3227 10.9383L28.3243 10.9352H28.3275L28.353 10.9412L28.3498 10.9623L28.401 11.0373C28.254 11.2927 28.3355 11.0583 28.3515 10.9606L28.329 10.9337L28.3243 10.9366L28.0479 11.9344C28.1517 11.7451 28.2428 11.4926 28.401 11.0373Z" fill="#FFA382"/>
<path d="M32.5363 8.22024L32.4873 8.19919C32.4509 8.25666 32.4414 8.28225 32.5363 8.22024Z" fill="#FFA382"/>
<path d="M32.1501 8.34931C32.19 8.2877 32.1899 8.19146 32.3865 8.07878C32.5814 8.01417 32.4393 8.15552 32.4872 8.19909C32.5655 8.0819 32.7956 7.81442 32.3913 7.9812L32.3514 8.04283C31.9998 8.2066 31.4293 8.31315 31.466 8.25155C31.6738 8.32066 31.8368 8.35832 32.1501 8.34931Z" fill="#FFA382"/>
<path d="M30.1828 9.50641L29.7466 10.187L30.1429 9.97521L30.047 9.92862C30.3682 9.60558 30.2068 9.59956 30.1828 9.50641Z" fill="#FFA382"/>
<path d="M27.4409 13.1711L27.2715 13.0192L27.4153 13.5473L27.4409 13.1711Z" fill="#FFA382"/>
<path d="M27.3337 14.2601L27.1499 14.2018L27.2538 14.5027L27.3337 14.2601Z" fill="#FFA382"/>
<path d="M42.2559 44.6469L42.4093 44.4967L42.2559 44.6469Z" fill="#FFA382"/>
<path d="M17.4841 32.3549C17.4841 32.7335 17.4314 33.2084 17.596 33.0791L17.7271 32.8943C17.5832 32.6914 17.5161 32.5126 17.4841 32.3549Z" fill="#FFA382"/>
<path d="M28.3886 44.3899L28.3661 44.2802L28.0737 44.2518L28.3886 44.3899Z" fill="#FFA382"/>
<path d="M29.1152 43.9694L29.3485 44.3013L29.1152 43.9694Z" fill="#FFA382"/>
<path d="M49.4129 39.3297L49.6207 39.1207C49.2483 39.1478 49.4273 39.2335 49.4129 39.3297Z" fill="#FFA382"/>
<path d="M20.0934 18.3591C19.7993 18.5093 19.5437 18.6174 19.4062 18.7932C19.7498 18.5859 20.1365 18.5499 20.0934 18.3591Z" fill="#FFA382"/>
<path d="M42.6808 46.7309C42.8054 46.6422 42.847 46.5837 42.8214 46.5461C42.692 46.6348 42.6265 46.7023 42.6808 46.7309Z" fill="#FFA382"/>
<path d="M18.8071 19.486L18.9542 19.3867L19.4064 18.7932C19.1603 18.9495 18.9014 19.1659 18.8071 19.486Z" fill="#FFA382"/>
<path d="M49.2983 17.0738L49.3033 17.0068L49.2983 17.0738Z" fill="#FFA382"/>
<path d="M46.4937 8.43802L46.8405 8.67251C46.7893 8.6199 46.687 8.54624 46.4937 8.43802Z" fill="#FFA382"/>
<path d="M26.335 15.4582C26.5683 15.4153 26.3685 15.4306 26.335 15.4582V15.4582Z" fill="#FFA382"/>
<path d="M27.5574 16.0798L27.4775 16.182L27.5574 16.0798Z" fill="#FFA382"/>
<path d="M18.6307 21.9361L18.6216 21.9508C18.6857 21.9171 18.6734 21.9215 18.6307 21.9361Z" fill="#FFA382"/>
<path d="M26.7025 15.5018L26.394 15.4803C26.4436 15.4895 26.5379 15.4956 26.7025 15.5018Z" fill="#FFA382"/>
<path d="M26.6421 15.4164L26.8498 15.4132C26.8738 15.378 26.8434 15.3597 26.6421 15.4164Z" fill="#FFA382"/>
<path d="M26.0093 15.5053L26.3928 15.4807L26.3352 15.4577L26.0093 15.5053Z" fill="#FFA382"/>
<path d="M57.8045 30.2499L57.8253 30.2093C57.747 30.0154 57.7581 30.101 57.8045 30.2499Z" fill="#FFA382"/>
<path d="M22.5384 35.4214L22.5142 35.4154L22.5336 35.4394L22.5384 35.4214Z" fill="#FFA382"/>
<path d="M23.2108 35.6938C22.8192 35.7239 22.6883 35.602 22.5333 35.438L22.3687 36.0054L23.2108 35.6938Z" fill="#FFA382"/>
<path d="M45.0092 42.4608L44.5729 42.6981C44.7103 42.0821 45.0331 41.8643 44.5664 42.0236C45.0714 42.5224 43.3456 43.2617 43.686 43.7515L43.3616 43.8536L43.4926 43.7124C42.8246 43.8416 43.3743 44.3073 42.6153 44.6724C42.3404 44.7806 42.1263 44.8047 42.2558 44.6454L41.7556 45.0555C41.5751 45.1171 41.5719 45.0061 41.7476 44.9475L40.8591 45.3605V45.3426C40.7648 45.4778 40.5283 45.7558 40.3877 45.8414C40.1097 45.8234 40.49 45.7467 40.4005 45.6942L39.9068 45.9737C39.6415 45.879 40.0394 45.619 40.4117 45.5483C39.7214 45.1051 40.0122 45.8038 38.8521 45.7512L39.3251 45.5454C38.9256 45.308 38.5804 45.5274 37.9827 45.3666C38.1202 45.4748 39.2148 45.7302 38.6683 45.9706C38.4925 45.9465 38.2704 45.9526 37.9684 46.1149C37.9348 45.903 37.6344 45.9947 37.2477 46.0593V45.7752C36.845 45.9165 36.8817 46.0157 36.6388 46.154C36.1642 46.1269 36.0683 45.9075 35.9645 45.7257C35.2278 45.6851 36.4727 46.0713 35.5842 46.1314C34.9626 46.0082 34.5391 46.0142 33.7465 46.0999C33.3342 45.9331 33.8583 45.9466 33.7209 45.8414L33.2959 45.9616C33.2048 45.93 33.2527 45.87 33.2766 45.8414C32.9395 45.8354 33.176 46.1089 32.6455 46.0382C32.3786 46.3147 31.7841 45.3215 31.0874 45.3365C30.9851 45.2013 31.2393 45.2164 31.2473 45.0962C30.346 44.955 30.5025 44.943 29.7275 44.7912L29.3472 44.3013C29.5933 44.698 28.8982 44.6393 28.3852 44.3899C28.4316 44.5807 28.4571 44.7655 28.5162 44.8451L27.7812 44.3433C27.7429 44.2352 27.8818 44.2353 28.0704 44.2518L27.9074 44.1871C27.7716 43.8941 28.0161 43.9031 28.2846 43.9437L28.3612 44.2817C28.6345 44.3088 28.8982 44.2998 28.9877 44.1465L28.7512 44.0143L28.8791 43.9738C28.8822 43.9332 28.7799 43.9212 28.6361 43.8791L28.7512 43.5305L28.6265 43.5862L28.0944 42.7387C27.5031 42.3135 26.53 42.0731 26.0298 40.9282C26.3686 41.1311 26.4277 40.8545 26.7074 40.7749C26.5332 41.1806 27.1164 41.5789 27.4216 42.0687C27.281 41.7922 27.4424 41.7891 27.5239 41.8312L26.8064 41.0153C27.0349 40.9537 26.8927 40.7419 26.8879 40.4609C26.5475 40.7929 26.2391 39.8388 26.0985 39.4136C26.2615 39.352 26.3941 39.4377 26.5012 39.9455C26.6929 39.3235 25.8221 39.3144 26.0043 38.6864L26.1065 38.9268C25.9163 38.6474 25.8972 37.8932 26.0666 38.0555L26.0921 38.1846C24.8345 36.1276 23.4666 36.6791 23.0751 36.4537C23.0975 36.4101 23.4363 36.1398 23.5194 36.1052L21.354 36.1878C21.6912 36.024 21.8015 35.1316 22.5126 35.4186C22.3544 35.2833 22.2202 35.064 21.8255 34.8461C21.891 34.9723 21.7439 35.4336 21.5793 35.3164C21.4515 34.6823 21.4419 34.9107 21.2086 34.2511C21.3109 34.442 20.726 34.6268 20.4975 34.3533C20.595 34.3473 20.8874 34.0181 21.0121 34.0767L20.0884 33.7042C20.2946 33.8244 20.472 33.4848 20.4879 33.2609C20.4592 33.3781 20.055 32.6974 19.9111 32.5276L20.0021 32.8763C19.5803 32.0574 18.9028 32.3924 18.4601 31.509C18.6199 31.5766 19.2 31.5149 19.0594 31.0717C18.7542 30.9755 17.5173 30.558 17.0459 29.7046L17.1673 29.5017L16.8829 28.8466C17.3064 29.2492 18.4489 30.1733 18.9763 30.6046C18.9859 30.2409 19.1217 30.4603 18.9459 29.9795C19.0306 29.7736 19.2447 30.1822 19.2975 30.3205L19.0466 29.1906C18.7462 29.3078 18.5943 28.3628 18.3418 28.4394C18.54 28.8526 18.6503 29.2734 18.9092 29.649C18.5864 29.7962 17.8577 29.1035 17.7826 28.196C17.8705 27.9616 18.3659 28.3012 18.4681 28.2666C18.3259 28.175 18.1422 27.4852 18.2508 27.4011L18.4186 27.7498C18.5368 27.2825 17.9999 26.9895 18.2987 26.42C18.3003 26.2202 18.719 25.8716 18.5544 25.8265C18.1406 26.097 17.0379 26.1195 16.7903 25.8566C16.8254 25.777 17.3144 24.7538 17.5269 24.5569C17.8577 24.2775 18.1069 25.179 18.3914 24.9326C18.3067 24.9085 18.2316 24.7102 18.2108 24.6276C18.3195 24.4367 18.4489 24.7627 18.5017 24.3165C18.2156 24.1722 18.8325 23.4511 18.3099 24.0491C18.3706 23.5998 18.532 23.6179 18.6886 23.1161C18.4458 23.2182 18.1486 22.4114 18.3547 21.9576C18.4138 22.0132 18.5624 21.9635 18.6311 21.9395C19.1009 21.08 19.5372 20.7452 20.1524 20.0856C20.2659 20.0675 20.611 19.8029 20.595 20.0298C20.6366 19.9006 20.6174 19.7248 20.8411 19.5581C21.4468 19.4168 20.3985 19.9682 20.9418 19.9366C20.8347 19.7924 21.3141 19.3357 21.5522 19.0036C21.287 18.8804 20.7644 19.5176 20.5903 19.8691C20.2595 19.5897 20.5391 18.8865 21.2471 18.1022C21.8415 17.5267 21.6769 18.0931 21.7552 17.9609C23.1439 17.3674 22.5765 16.7138 23.9284 16.523C24.5085 16.6026 24.1234 16.9603 24.2959 17.0895C23.6967 17.3209 23.3132 17.3088 22.9137 17.5086L23.4491 17.3645C23.2989 17.5313 22.9505 17.7746 22.7076 17.8197C23.1295 17.7341 25.023 16.8806 26.1943 16.8595C26.3781 16.7604 26.7121 16.6401 26.5315 16.5635L26.1736 16.6372C25.7964 16.49 26.8112 16.2991 26.3302 16.2646C26.8 16.0767 27.3465 15.8003 28.0704 15.8273L28.2206 16.0828C28.203 16.0062 27.7492 15.9747 27.559 16.0799C28.08 15.6892 28.5115 16.6928 28.0353 16.0212C28.2462 15.8634 27.2779 17.0744 28.4588 15.8018C27.0717 16.7784 27.6661 15.1092 27.4887 14.7892C27.2011 15.0732 27.5207 14.9303 27.1835 15.3961C27.5942 14.9859 27.166 17.0593 27.599 16.3757C29.189 14.4209 27.3577 15.8529 27.1628 15.2519C27.1931 15.3376 27.4025 15.3962 26.8496 15.4157L26.7425 15.5073L26.7042 15.5043L26.7377 15.5104L26.7489 15.5133L27.0461 15.6155C26.808 15.8589 25.9515 15.9205 25.699 16.0993C25.381 16.1459 25.8029 15.9641 25.6128 15.9205L25.234 16.1939C25.1445 16.0121 24.304 16.1174 25.0183 15.7914L24.3392 15.9761C23.9109 16.0061 23.3164 16.0708 23.0431 16.3337C22.7203 16.4449 22.3928 16.9092 22.5765 16.6387L21.6561 17.2458L21.6209 17.2082C20.7052 17.7987 19.9718 18.664 18.9571 19.3882C18.7733 19.7023 18.5512 19.9954 18.1661 20.4537L17.9535 20.4627C17.781 20.8849 17.1034 21.5925 17.1801 21.8419C16.5425 22.1154 16.223 23.8899 16.1079 24.6562L16.3396 24.7237C16.2613 25.2555 16.1654 25.7739 16.3012 26.438L16.5122 26.4065C16.7023 26.9609 16.3028 27.8534 16.5265 28.7369C16.437 28.6903 16.4227 28.4605 16.4434 28.2967C16.0887 29.4536 17.1977 30.4393 17.2136 31.425C17.3575 31.6308 17.391 31.8035 17.4294 31.9702L17.3926 31.9207L17.4358 32.0124L17.4885 32.358L17.4597 32.059L17.88 32.6989L17.7315 32.8988L17.7682 32.9544C17.821 33.2384 17.9647 33.1046 18.0494 32.9018L18.337 33.1663C18.1005 33.5479 18.8308 33.7177 18.6854 34.1609C18.9699 34.2045 19.6234 35.2472 20.0725 35.0699C20.0389 35.1074 20.0789 35.178 19.9702 35.0789C20.1572 35.3193 20.3506 35.5658 20.6318 35.683L20.5263 35.9669L21.2822 36.1698C21.4707 36.5605 21.5874 36.7122 21.0856 36.6415C22.1419 36.9616 21.8574 37.0141 22.7523 37.2229L22.6181 37.3462C22.8674 37.534 23.4251 37.5401 23.5257 37.7279C23.3659 37.8421 25.4178 38.7496 24.5805 38.386C24.7243 39.316 24.8585 40.3693 25.0902 41.2182C25.4817 40.7254 25.1525 42.0581 25.5712 41.9694C25.4881 42.1107 25.5136 42.3721 25.3075 42.1512C25.8556 42.8784 25.8652 43.4284 26.4932 43.768C26.4452 43.9257 26.2312 43.7063 26.22 43.8265C26.2871 43.8731 26.4613 44.0173 26.4788 44.1225C26.4852 44.2337 26.2903 44.0909 26.1752 43.9903C26.816 44.7175 27.2187 44.5072 27.5303 44.3254C27.7204 44.7626 27.9074 44.9234 28.3037 44.9805C28.358 45.1503 28.4795 45.4237 28.0081 45.0917C28.2222 45.317 29.5326 46.3748 29.7099 46.1569C29.7563 46.2651 30.1062 46.3658 30.1973 46.3748C30.8461 46.6858 30.8877 46.7563 31.5557 46.9967L31.3895 46.8887C31.7778 46.6709 31.9743 46.9833 32.5336 47.1035L32.5081 47.1336C33.7034 47.721 33.0626 47.1952 34.285 47.6565L34.2466 47.4386C34.4208 47.0014 35.3333 47.8848 36.1099 47.6609L35.843 47.5407C36.2346 47.374 36.992 48.1867 37.433 48.1867C37.5305 48.2108 37.2956 48.2755 37.1677 48.307C38.3039 48.4483 37.2892 48.0171 38.0914 47.8518C38.2624 47.981 37.946 48.2543 38.5101 48.2093C38.8377 48.3355 39.9867 47.4371 40.7857 47.5017C40.5859 47.4341 40.3957 47.3665 40.7297 47.1877C41.2586 47.0209 42.3613 47.0238 42.6873 46.51L42.8278 46.5505C43.181 46.2771 43.9864 45.7032 44.0886 45.4178C44.934 45.8144 45.9583 43.5305 46.377 43.9587L47.2207 42.9206L47.2575 42.9881C47.812 42.3255 47.7577 41.9409 47.7656 41.6239C47.9063 41.4797 47.8951 41.6298 47.9206 41.6584C46.9475 41.412 48.7212 41.5847 49.231 41.1039L49.3701 41.3128C49.6242 41.2452 51.2781 41.3339 52.4126 40.7089L52.3231 40.8561C53.5168 40.1515 55.7348 39.7052 55.5654 38.7196L56.0608 37.9502C55.2458 38.754 55.9058 37.5897 55.4935 37.8421C55.7396 37.4966 56.4412 37.1644 56.112 37.5896L56.0224 37.6272C56.219 38.0494 57.1107 36.6761 57.2689 36.8143C58.5825 34.9512 59.3974 32.7997 59.415 30.6691L59.0634 30.9035L59.105 30.1838C59.1897 29.99 59.3798 29.9134 59.3511 30.4393C59.5844 30.1553 59.1369 29.5677 59.0602 29.5677C59.0634 28.54 59.5109 29.9284 59.4789 29.6204L59.3958 29.1921L59.3671 29.2913C59.1817 28.9593 59.0315 28.9503 58.9628 28.3282C58.9484 27.9286 59.1194 28.0909 59.0922 27.9346C59.1178 27.9286 59.113 27.8759 59.0299 27.6971L58.7742 26.7881L58.6287 27.2254C58.3795 26.8738 58.3811 26.3974 58.2197 26.8932C58.5856 26.0954 56.7239 23.7966 56.5018 23.4811C55.9761 23.149 55.4888 22.829 54.9678 22.3301C55.0701 22.4879 54.955 22.7764 54.5188 22.3617C55.0861 21.9921 53.6878 21.6045 53.4369 20.9795C53.7501 21.3581 51.7063 20.3725 52.2257 21.0096C51.7431 20.8067 52.2784 20.7916 51.9396 20.5391L50.9584 20.3108C52.0003 21.7216 51.2493 20.147 51.4986 20.1936C51.5273 19.519 51.5705 18.7963 51.4922 18.0781C51.4091 18.0631 51.2956 18.3125 51.1582 18.0165L51.5273 17.2126C51.4538 16.9301 51.0942 17.0129 51.2077 16.4645C51.1614 16.5501 51.091 16.6702 51.008 16.4914C50.7363 13.5826 48.8507 11.1246 47.1121 8.66198C47.339 9.01958 47.1008 8.86183 46.8436 8.67702C46.9826 8.82727 46.6998 8.81512 46.6567 8.91729L45.8337 7.94081C45.4614 8.03697 44.7118 7.15193 44.4466 7.30969L44.7982 7.50044C44.1973 7.4764 44.9595 8.53868 44.6208 8.83017C45.3175 8.86773 45.3686 10.0773 46.4681 10.1975C46.5591 10.3703 46.23 10.1945 46.2364 10.3237C46.5864 10.2966 46.7382 10.5235 46.9491 10.9757L46.8803 10.9577C47.6298 12.0876 47.9814 12.5865 48.4815 13.9778L48.6542 13.79C48.7213 14.113 48.6765 14.2032 48.6685 14.3685C49.092 14.6149 48.4208 13.482 48.8635 13.6788C48.5663 14.2513 49.5394 15.9176 49.1303 16.3082C49.2758 16.78 49.3381 16.1173 49.4851 16.5951L49.3876 16.7455L49.6017 16.837C49.6976 17.154 49.4675 17.357 49.3684 17.3795L49.2998 17.0806C49.1815 17.5178 49.4148 18.263 49.3749 18.4132L49.4387 17.9264L49.6049 20.1155C50.0684 20.8367 48.6685 20.0944 50.69 22.0086L51.7446 22.2085L51.6823 22.0853C52.7721 22.2055 52.403 22.488 53.4433 22.9222H53.3937C53.6382 22.9538 53.9706 23.0213 54.1784 23.2542C53.8923 23.1655 54.4277 23.7681 54.0665 23.6329C55.0237 24.1813 54.5731 23.8507 55.4169 24.0731L55.3912 24.3165C55.6645 24.4126 55.7412 24.3811 56.1359 24.8033C55.7268 24.5238 56.1423 25.2286 55.6645 24.9386C56.1103 25.9693 56.871 26.2292 56.6665 26.8813C57.3616 27.1773 56.4443 25.9016 56.6792 26.124C56.7 25.828 57.2098 26.3705 57.3456 26.725C57.4846 27.0886 56.9636 27.535 57.2513 28.3809L57.1634 28.211C57.173 28.5491 57.4703 28.83 57.3313 29.2702C57.6524 29.4701 57.3871 29.8036 57.7674 29.8427L57.5677 29.0089C57.6939 29.4641 58.3044 29.8983 58.0184 30.7232C57.9449 30.6586 57.8538 30.4213 57.8059 30.259C57.6892 30.4934 57.8617 30.7082 57.7419 30.9486C57.3791 30.875 57.7164 29.9179 57.3105 29.4461C57.1922 29.6925 57.6988 30.3671 57.2737 30.1387C57.7723 30.4903 57.1746 31.0101 57.5501 31.6412L57.3296 31.5827C57.3727 31.6819 57.4351 31.8876 57.3919 32.0634L57.1698 31.7179C57.3121 32.2287 56.7671 32.5952 56.8119 33.067C56.9925 32.1159 57.1155 32.9094 57.3568 32.5307C57.4111 33.8214 56.6409 33.0911 56.2925 34.3562C56.3261 34.1804 56.6617 33.7688 56.6569 34.0663C56.5179 34.2916 56.3244 34.5802 56.1567 34.6733C55.7316 35.4426 56.4364 34.6522 56.3581 35.0308C55.9554 35.1751 56.2238 35.456 56.0832 35.8527L55.8898 35.7415C55.2266 36.5424 56.1311 36.2285 55.3784 36.8715L55.4024 36.3906L55.1371 36.8009L55.0077 36.5695C54.7824 37.0533 54.6977 37.2245 54.2152 37.4619C54.4213 37.4995 54.4373 37.7879 54.0522 38.0839C53.7102 38.1785 54.0633 37.8136 53.5504 38.2418C53.5903 38.039 53.6063 37.8136 53.9643 37.7956L53.9674 37.5371C53.6015 37.6228 53.2819 38.0089 53.0965 38.1561L53.3251 38.0419C53.1589 38.3409 52.8888 38.5136 52.6507 38.7555C52.4733 38.7495 52.5501 38.6413 52.6252 38.5362C52.4606 38.6383 52.3887 38.7826 52.133 38.9268C52.1218 38.739 52.0291 38.5827 52.3391 38.3423L51.6248 38.9057C51.5513 38.8877 51.0991 38.8352 51.1934 38.7555C50.6852 38.7495 50.1195 39.4393 49.4004 39.3777C49.3684 39.4152 49.3029 39.4513 49.1607 39.4859C48.0932 39.9351 48.8379 38.3408 46.2635 40.6186L45.7697 40.8215C45.5604 41.3353 46.409 40.5286 46.0494 41.4031C45.8018 42.0431 45.7011 41.4856 45.4885 41.6254C45.4166 41.9514 45.2808 42.608 44.6783 42.916L45.0092 42.4608ZM38.6875 45.9737C38.8265 45.9181 39.0694 45.6896 39.2037 45.7917C39.1014 46.0652 38.948 46.0037 38.6875 45.9737ZM27.9106 43.3006C28.0465 43.3322 28.1327 43.4735 28.2046 43.6643L27.9106 43.3006ZM23.8613 16.2466L23.8469 16.2616C23.4458 16.2932 23.5897 16.2856 23.8613 16.2466ZM24.6587 16.1083C24.7258 16.0587 24.7114 16.0317 24.6699 16.0122C24.6331 16.0798 24.4621 16.1324 24.2624 16.176C24.3343 16.212 24.4461 16.221 24.6587 16.1083ZM58.9836 27.8684L58.9691 28.0218C58.8077 27.7213 58.8925 27.7948 58.9836 27.8684Z" fill="#FFA382"/>
<path d="M29.0326 44.0174L28.9927 44.1466C29.0566 44.1601 29.0853 44.1286 29.0326 44.0174Z" fill="#FFA382"/>
<path d="M49.375 39.3667H49.3978L49.4116 39.3296L49.375 39.3667Z" fill="#FFA382"/>
<path d="M18.5467 24.6982L18.3916 24.9297C18.4459 24.9478 18.5019 24.8951 18.5467 24.6982Z" fill="#FFA382"/>
<path d="M27.1244 16.2902L27.1564 16.5425L27.166 16.6042C29.7084 13.7164 27.834 15.8123 28.3853 15.1723L28.2591 15.1992L28.4173 15.1842C25.9691 18.039 27.7477 15.904 27.2075 16.5171L27.2603 16.3261C27.206 16.3441 27.1308 16.4494 27.1244 16.2902Z" fill="#FFA382"/>
<path d="M29.0514 12.3701L29.0945 12.1702L28.9907 12.1491C28.8964 12.4166 28.906 12.6256 29.0514 12.3701Z" fill="#FFA382"/>
<path d="M27.8741 15.7658C28.0642 15.7162 28.0019 15.4277 27.9715 15.0971V15.1558C27.7062 15.0521 27.7894 15.4157 27.8741 15.7658Z" fill="#FFA382"/>
<path d="M27.9649 15.0204V14.7124C27.8579 14.6674 27.9394 14.8386 27.9649 15.0204Z" fill="#FFA382"/>
<path d="M25.5981 15.7162C25.7723 15.7162 25.6509 15.4549 25.7627 15.5165C25.889 15.222 24.7256 16.0919 25.5981 15.7162Z" fill="#FFA382"/>
<path d="M28.5036 15.4742L28.2671 15.5971L28.4541 15.7618L28.5036 15.4742Z" fill="#FFA382"/>
<path d="M26.8722 16.4405H27.4108L27.5434 16.3487C27.2158 16.3788 26.8482 16.3758 26.8722 16.4405Z" fill="#FFA382"/>
<path d="M27.5435 16.3487L27.9701 16.263L27.5435 16.3487Z" fill="#FFA382"/>
<path d="M28.5659 16.1473L28.5164 16.3006C28.5643 16.4614 28.3502 16.4478 28.2495 16.4538C28.4732 16.5199 28.6075 16.3231 28.5659 16.1473Z" fill="#FFA382"/>
<path d="M21.5235 18.3336L21.1128 18.7392C21.1192 18.8338 21.2726 18.7708 21.4164 18.619C21.4899 18.4943 21.6402 18.3397 21.5235 18.3336Z" fill="#FFA382"/>
<path d="M23.3407 18.0225L23.0435 17.9805L23.1649 18.2299L23.3407 18.0225Z" fill="#FFA382"/>
<path d="M21.9902 18.8383C21.9918 18.9345 21.5284 19.4875 22.0381 19.0608C22.0318 18.9677 22.412 18.5859 21.9902 18.8383Z" fill="#FFA382"/>
<path d="M17.6311 25.3699L17.6502 25.2361L17.1724 25.191L17.6311 25.3699Z" fill="#FFA382"/>
<path d="M19.9126 31.817C19.7465 31.2506 19.5819 31.811 19.4668 31.2776C19.2974 31.195 19.5643 31.7148 19.4077 31.6232C19.6826 31.9026 19.7065 32.0965 19.9126 31.817Z" fill="#FFA382"/>
<path d="M19.4063 31.6247L19.2529 31.4864L19.4063 31.6247Z" fill="#FFA382"/>
<path d="M45.2725 7.23759L44.9434 6.88287L45.1031 7.18789L45.2725 7.23759Z" fill="#FFA382"/>
<path d="M44.3621 6.99906L44.4245 6.68915L44.0649 6.75351C44.156 6.80293 44.335 6.8987 44.3621 6.99906Z" fill="#FFA382"/>
<path d="M37.4968 45.5454L37.4761 45.619C37.5448 45.6836 37.6359 45.6776 37.8197 45.6656L37.4968 45.5454Z" fill="#FFA382"/>
<path d="M42.5243 44.1572L42.4443 44.1963L42.7352 44.3315L42.5243 44.1572Z" fill="#FFA382"/>
<path d="M45.321 41.1461L45.0557 41.5863C45.2714 41.3083 45.6182 41.2693 45.321 41.1461Z" fill="#FFA382"/>
<path fill-rule="evenodd" clip-rule="evenodd" d="M31.8676 16.0858C34.402 13.0537 35.9585 14.0349 37.8025 15.0416C39.1273 10.8556 31.0782 12.4813 31.8676 16.0858Z" fill="#FCDCD5"/>
<path fill-rule="evenodd" clip-rule="evenodd" d="M25.6225 22.0658C21.0986 23.2137 19.7435 29.1711 23.0897 32.2633C22.019 29.2388 21.2664 24.246 25.6225 22.0658Z" fill="#F5F5F3"/>
<path fill-rule="evenodd" clip-rule="evenodd" d="M48.6434 31.5886C50.4747 28.4874 48.8224 24.6245 45.9028 24.8649C47.6398 25.8551 49.9873 28.0352 48.6434 31.5886Z" fill="#FCDCD5"/>
<path fill-rule="evenodd" clip-rule="evenodd" d="M31.7302 26.749C32.9798 27.1427 34.7232 25.8896 33.4144 24.3691C31.1596 22.9026 29.7982 26.4681 31.7302 26.749Z" fill="#BE1E2D"/>
<path fill-rule="evenodd" clip-rule="evenodd" d="M38.1122 24.6666C37.9556 24.303 38.24 24.1061 37.6216 23.5742C33.9622 22.7884 36.1435 27.6686 38.1122 24.6666Z" fill="#BE1E2D"/>
<path fill-rule="evenodd" clip-rule="evenodd" d="M41.067 23.0814C39.91 22.4909 38.865 23.4361 39.2805 24.2114C39.4051 25.6343 42.5979 24.1782 41.067 23.0814Z" fill="#404751"/>
<path fill-rule="evenodd" clip-rule="evenodd" d="M38.4785 27.5365C38.7646 29.048 40.8068 28.1434 41.1424 27.3426C41.6825 26.6469 41.4956 26.0278 40.4872 25.8836C39.0458 25.825 39.0059 26.5418 38.4785 27.5365Z" fill="#404751"/>
<path fill-rule="evenodd" clip-rule="evenodd" d="M33.8745 28.4874C34.1334 29.3829 34.5649 29.8668 35.081 30.1598C36.7924 29.8112 37.243 29.0885 36.7637 27.7798C36.2779 26.7236 34.1765 27.7827 33.8745 28.4874Z" fill="#404751"/>
<path fill-rule="evenodd" clip-rule="evenodd" d="M30.6035 29.3469C31.0701 31.4714 33.0292 30.2063 33.2641 29.1591C32.8023 28.241 30.8049 27.2839 30.6035 29.3469Z" fill="#404751"/>
<path fill-rule="evenodd" clip-rule="evenodd" d="M37.9062 30.3385C38.138 31.5706 37.943 31.1483 38.7228 32.167C40.0875 32.9978 40.8689 30.9815 40.4007 29.787C39.7519 29.5496 38.0437 29.0359 37.9062 30.3385Z" fill="#404751"/>
<path fill-rule="evenodd" clip-rule="evenodd" d="M33.9944 34.8896C35.5236 35.5733 37.1743 34.3142 36.9426 33.3015C36.2139 30.0861 31.7028 32.2017 33.9944 34.8896Z" fill="#404751"/>
<path fill-rule="evenodd" clip-rule="evenodd" d="M50.9025 25.6583C50.5126 25.8116 50.634 25.6402 50.2425 25.7935C53.2915 28.8871 53.1094 33.288 48.7261 35.1135C54.065 37.0322 54.9327 27.4162 50.9025 25.6583Z" fill="#E85E52"/>
<path fill-rule="evenodd" clip-rule="evenodd" d="M43.2883 29.0823C41.628 29.6187 41.5801 31.3707 42.5453 31.521C43.8573 31.3121 43.4082 31.4804 44.4916 30.7637C44.6977 29.8862 44.2823 28.7473 43.2883 29.0823Z" fill="#404751"/>
<path fill-rule="evenodd" clip-rule="evenodd" d="M29.8667 39.5533C29.2994 39.0139 29.7932 39.3506 29.3586 39.588C27.6583 43.8896 32.9572 45.1397 36.1931 44.6349C34.3698 43.1159 30.0968 45.0089 29.8667 39.5533Z" fill="#F5F5F3"/>
<path fill-rule="evenodd" clip-rule="evenodd" d="M40.5412 33.1737C40.0618 32.3173 39.0311 32.8913 38.5996 33.94C38.9 36.1427 41.7653 34.7634 40.5412 33.1737Z" fill="#BE1E2D"/>
<path fill-rule="evenodd" clip-rule="evenodd" d="M33.8757 39.6404C33.2476 43.843 43.9606 43.7994 45.3716 38.5752C42.2172 41.484 36.979 42.4231 33.8757 39.6404Z" fill="#E85E52"/>
<path fill-rule="evenodd" clip-rule="evenodd" d="M37.1152 11.443C41.3835 11.6428 45.1467 15.2954 45.4679 18.8999C48.1653 16.2766 41.6567 8.5146 37.1152 11.443Z" fill="#E85E52"/>
<path fill-rule="evenodd" clip-rule="evenodd" d="M13.7748 41.3909L13.4153 41.6403C12.709 42.025 12.0202 42.2473 11.3794 42.2594C7.47708 43.1128 3.05705 42.1421 0.567383 38.1214C3.7298 36.9735 7.58897 36.4402 10.1505 35.6919C11.0726 35.6273 12.0106 35.474 12.8959 35.6153C13.9314 36.1051 18.3402 36.0826 17.4917 38.6203C16.8941 39.5323 15.0915 41.0679 13.7748 41.3909Z" fill="#A3BA3A"/>
<path fill-rule="evenodd" clip-rule="evenodd" d="M56.6087 10.2154C55.9855 10.6286 55.4869 11.2838 55.0811 12.1117C55.0251 12.2724 54.9692 12.4287 54.9149 12.5895C53.8762 13.7374 53.2769 16.3833 53.3808 17.6604C54.4562 20.6804 58.7485 17.8632 60.1355 17.6784C61.1087 17.2622 61.9061 16.5139 62.7578 15.8648C64.6962 13.5029 68.0696 10.5385 70.302 7.40132C64.832 5.04839 59.7759 6.89636 56.6087 10.2154Z" fill="#A3BA3A"/>
<path fill-rule="evenodd" clip-rule="evenodd" d="M66.7578 18.2479C66.2049 18.2238 65.6217 18.356 65.0177 18.5964C64.9138 18.6519 64.8115 18.7046 64.7108 18.7572C63.5842 18.93 61.8488 20.9839 61.3519 21.6059C60.6743 23.3699 64.4775 23.5426 65.3884 23.9393C66.1538 24.0715 66.9512 24.0009 67.7486 23.9949C69.9426 23.5727 73.2537 23.3578 75.9543 22.6741C73.7091 19.7187 70.104 17.7986 66.7578 18.2479Z" fill="#668C0C"/>
<path fill-rule="evenodd" clip-rule="evenodd" d="M74.2537 10.7655C74.372 10.6423 74.2474 10.7685 74.2474 10.7685C71.9367 16.1324 78.3622 15.0054 79.5255 12.6195C80.8838 9.84885 75.6248 7.83115 74.2537 10.7655Z" fill="#C7EDFF"/>
<g opacity="0.65">
<path fill-rule="evenodd" clip-rule="evenodd" d="M86.2724 18.6325C86.3586 18.5468 86.2724 18.6385 86.2724 18.6325C84.6488 22.4008 89.1551 21.6105 89.9685 19.9382C90.9257 17.9955 87.2343 16.5786 86.2724 18.6325Z" fill="#FFB296"/>
</g>
<g opacity="0.65">
<path fill-rule="evenodd" clip-rule="evenodd" d="M18.2186 1.46483C18.3033 1.38069 18.2186 1.47084 18.2186 1.46483C16.5951 5.23311 21.1014 4.44282 21.9148 2.77053C22.872 0.827793 19.1806 -0.589096 18.2186 1.46483Z" fill="#FFF100"/>
</g>
<path fill-rule="evenodd" clip-rule="evenodd" d="M60.1308 46.0622C60.0445 46.1539 60.1308 46.0593 60.1308 46.0593C61.7591 42.285 57.2417 43.0812 56.4235 44.7565C55.4711 46.7053 59.1672 48.1252 60.1308 46.0622Z" fill="#C2EDFF"/>
<g opacity="0.74">
<path d="M40.6592 28.9892L40.6416 29.2733L40.9261 29.3228L40.6592 28.9892Z" fill="#CAEFFF"/>
<path d="M40.1143 30.5699L40.3891 31.0628C40.9708 30.5174 40.8894 30.9335 41.201 30.047C41.0268 29.8412 40.6113 29.3168 40.3364 29.428C40.4211 29.6279 40.7791 29.8474 40.7647 30.1494C40.5234 30.0848 40.4642 29.7677 40.143 29.6655C40.0456 30.214 40.4052 29.936 40.4483 30.4964L40.1143 30.5699Z" fill="#CAEFFF"/>
<path d="M41.0315 30.8959L40.6479 30.9642C40.795 30.9581 41.0746 31.1065 41.0315 30.8959Z" fill="#CAEFFF"/>
<path d="M41.2667 31.1244C41.4137 31.4039 41.0174 31.2417 40.9966 31.2853L41.623 31.371L41.2667 31.1244Z" fill="#CAEFFF"/>
<path d="M41.9502 32.2512L42.0844 32.3368C42.1052 32.2542 42.0221 32.2662 41.9502 32.2512Z" fill="#CAEFFF"/>
<path d="M42.4587 32.678C42.4906 32.4841 42.2989 32.4345 42.0847 32.3368L42.0752 32.3684C42.1135 32.5712 41.6692 32.6973 41.5814 32.3713C41.3401 32.1399 41.6421 31.9837 41.3033 31.8695L41.2793 32.3443C41.5765 32.7921 42.2429 32.6194 42.4587 32.678Z" fill="#CAEFFF"/>
<path d="M41.9504 32.2512L41.8418 32.1189L41.9504 32.2512Z" fill="#CAEFFF"/>
<path d="M41.6261 31.6721L41.4775 31.5676L41.3721 31.675L41.6261 31.6721Z" fill="#CAEFFF"/>
<path d="M43.2701 33.411C42.8978 33.6905 42.7364 32.8387 42.4136 33.0235C42.7428 33.3104 42.7747 33.8017 42.527 33.9159L43.0033 34.1623C43.2589 34.1247 43.2909 33.7521 43.2701 33.411Z" fill="#CAEFFF"/>
<path d="M43.3232 34.8701L43.4734 34.8768L43.3232 34.8701Z" fill="#CAEFFF"/>
<path d="M46.0125 35.453L44.7101 35.3704C44.8779 35.3058 44.9163 35.1556 45.1879 35.2202C44.7437 34.9618 44.5598 35.121 44.2083 34.8626C44.3377 34.4434 44.8651 35.2442 44.8603 34.7919C44.6046 34.6447 44.2243 34.4253 43.8024 34.5801L43.5739 34.0902L43.4189 34.5454C43.5084 34.7633 43.9766 34.4689 43.8887 34.798C43.8231 34.9918 43.6314 34.915 43.4796 34.8745C43.8072 34.9601 44.0133 35.6754 44.6493 35.9428C45.3237 36.1908 45.5123 35.48 46.0125 35.453Z" fill="#CAEFFF"/>
<path d="M45.8305 35.9294L45.8257 36.1233L45.8832 35.8813L45.8305 35.9294Z" fill="#CAEFFF"/>
<path d="M47.2701 35.8587L46.5894 35.9143L46.543 35.6559C46.5207 35.761 46.297 35.8617 46.2842 35.9519C46.3849 36.4537 47.0433 36.1397 47.3852 36.1307C48.1778 36.5364 47.2749 36.3306 47.4842 36.7934C47.2413 36.7137 47.2622 36.6205 46.933 36.5003C47.3133 37.0878 48.1491 36.867 48.5086 36.8414C48.4175 36.7768 48.4255 36.6446 48.2289 36.6296L48.6125 36.592C48.3329 36.1788 48.0691 36.0165 47.2701 35.8587Z" fill="#CAEFFF"/>
<path d="M46.2651 35.465C46.4841 35.5267 46.5464 35.5852 46.5416 35.6469C46.5321 35.5206 46.4968 35.4184 46.2651 35.465Z" fill="#CAEFFF"/>
<path d="M48.6958 36.8802L48.5088 36.8429L48.6958 36.8802Z" fill="#CAEFFF"/>
<path d="M48.4731 36.3139L48.8774 36.4673L48.7608 36.2328C48.6969 36.2374 48.4875 36.2132 48.4731 36.3139Z" fill="#CAEFFF"/>
<path d="M63.8621 32.1927C63.7311 32.0725 63.5553 32.0874 63.3029 32.2842C63.2022 32.0784 63.5793 31.8907 63.6671 31.6833C63.2245 31.7885 63.517 31.461 63.2996 31.3393C62.889 31.5706 62.8841 31.9236 62.4223 32.143L62.2386 31.9702C61.8087 32.4074 61.0481 33.1152 60.4328 33.264C59.8911 33.4788 59.578 33.7718 59.0826 34.1715C57.2113 35.0309 55.2921 36.2404 52.959 36.3787L52.6922 36.8339C52.5516 36.625 52.1249 36.8714 52.1696 36.5845L52.5691 36.5634C52.0481 36.1907 51.262 36.7422 50.6724 36.4838C50.7315 36.5694 50.8049 36.9555 50.6179 37.0036C50.7106 36.5258 49.8957 36.9361 49.803 36.3636C49.2406 36.1638 49.7087 36.7798 49.103 36.6371C48.9768 36.9106 49.6784 36.8398 49.7631 37.0652C49.5234 37.271 49.1974 36.9045 49.1702 37.2035C50.1994 37.5325 52.2368 37.0742 53.6781 36.5724L53.5775 36.8744C54.3301 36.5168 55.5159 36.1788 56.2653 36.311C56.0192 36.1292 57.4239 36.024 57.0355 35.5221C57.2689 35.5567 57.3119 35.5131 57.5836 35.4365L57.5613 35.2397C57.916 35.0729 57.9959 35.351 58.3938 35.1346C58.0039 35.0459 58.2596 34.8384 58.2692 34.601C58.8748 34.6311 59.506 34.5245 60.0333 34.5049C59.9566 34.4554 59.8719 34.3968 59.677 34.3788C59.9934 34.3051 59.8176 34.1263 59.8431 34.0121C60.0924 33.8559 60.2459 34.1473 60.3226 34.2946C60.8611 34.1128 60.7141 33.4638 61.1743 33.4292L60.909 33.2849C61.3436 32.9438 61.9078 32.9393 62.3792 32.5487C62.8394 32.6869 62.1283 33.0655 61.9973 33.324C62.1475 33.321 62.3856 33.1978 62.5262 33.2504C62.6476 32.9664 62.8729 32.5293 63.0471 32.2152C63.028 32.7156 63.6704 32.2843 63.8621 32.1927Z" fill="#CAEFFF"/>
<path d="M62.5293 33.2473L62.459 33.4577L62.6172 33.3254L62.5293 33.2473Z" fill="#CAEFFF"/>
<path d="M63.8623 32.1927L63.8962 32.2221L63.8623 32.1927Z" fill="#CAEFFF"/>
<path d="M60.353 33.2849L60.4329 33.264L60.5256 33.2174L60.353 33.2849Z" fill="#CAEFFF"/>
<path d="M60.6054 34.5049L60.0366 34.502C60.1453 34.5757 60.2331 34.6342 60.6054 34.5049Z" fill="#CAEFFF"/>
<path d="M57.0306 36.0255C56.9363 36.1111 57.0371 36.1578 56.994 36.2631C57.2353 36.1819 57.2735 36.069 57.0306 36.0255Z" fill="#CAEFFF"/>
<path d="M63.1382 32.9468L63.4849 32.6328L63.5872 32.487L63.1382 32.9468Z" fill="#CAEFFF"/>
<path d="M70.4633 27.0961C69.9456 27.0014 69.471 27.4101 69.0044 27.6129C68.2709 28.1974 69.2505 28.2531 68.5058 28.7024L68.2965 28.0863C67.5311 28.5235 66.4028 29.084 66.0816 29.9239C65.981 29.8924 65.7924 29.8923 65.9346 29.7014C65.452 30.0275 66.2031 30.6106 65.4233 30.8465C65.8068 30.1358 65.003 30.6645 64.9407 30.2333L65.011 30.1372C64.6163 30.4332 64.1833 30.9531 63.894 31.1064C63.9787 31.2476 64.367 31.3002 64.0075 31.5526C64.1769 31.482 64.2264 31.6728 64.3079 31.8171C64.5859 31.4264 64.856 31.3889 64.9615 31.0658C65.3002 31.1094 64.8592 31.2131 65.1964 31.2536L65.3865 30.8989C65.6406 30.7998 65.2795 31.222 65.655 31.0402C65.6231 30.9109 65.8292 30.6211 66.1201 30.4708L66.0848 30.582C66.2446 30.3761 66.6042 30.2859 66.299 30.053L66.7512 30.1974L66.5707 30.0215C67.2083 29.754 67.7436 30.1041 68.3253 29.4115C68.1048 29.449 68.199 29.2508 68.2725 29.1562C67.8618 29.1877 67.9848 29.5377 67.7084 29.7376C67.5278 29.5618 67.8731 29.0178 67.4304 29.1125C67.9833 29.1095 68.1686 28.6453 68.664 29.063C69.1658 28.8346 69.1945 28.4814 69.7586 28.3326L69.7922 28.4183C69.6819 28.0156 70.2844 28.3717 70.4585 27.8398L70.1469 27.8864C70.0798 27.7361 70.2093 27.6717 70.3787 27.5605C70.3882 27.6251 70.3883 27.625 70.4825 27.6656C70.401 27.3861 70.962 27.0706 70.9971 26.9609C70.7287 27.0315 70.5369 27.3832 70.2892 27.583C70.3547 27.3607 70.1949 27.1667 70.4633 27.0961Z" fill="#CAEFFF"/>
<path d="M66.0161 30.7879L66.088 30.576L66.0161 30.7879Z" fill="#CAEFFF"/>
<path d="M73.0202 26.6004C73.3733 26.5418 73.0185 26.8648 73.3669 26.8738C73.6354 26.5628 72.8427 26.6303 73.068 26.2277C73.3285 26.3013 73.581 25.9438 73.7296 25.9017C73.6194 26.1016 73.8255 26.4441 73.9086 26.5057C74.0093 26.3705 74.3529 26.4847 74.5734 26.4441C73.9677 26.3419 75.0032 26.1976 74.444 26.0624C74.4232 25.837 74.933 25.5456 75.1838 25.6688C75.195 25.8266 75.0177 25.8387 74.8754 25.8777C74.8243 26.2158 75.2605 25.9363 75.3884 26.2322C75.8326 25.7514 77.6207 25.7003 77.1429 25.0467C76.9432 24.8799 76.7691 25.0934 76.5565 25.1265C77.1574 25.2226 76.5612 25.49 76.5229 25.6162C76.2704 25.5245 75.8646 25.7725 75.9381 25.5201L76.32 25.2361C74.9905 25.1189 73.2326 25.6328 71.9239 26.2609L72.5263 26.058C72.5247 26.2578 72.2499 26.369 72.0725 26.5297L72.5311 26.8469C72.3553 26.8769 72.2243 26.9941 72.17 26.8408C72.0469 27.0902 72.1876 27.1639 72.3666 27.263C71.9847 27.4944 71.8328 27.3365 71.6538 27.7617C72.4832 27.8053 72.1045 27.254 73.0202 27.257V26.6004Z" fill="#CAEFFF"/>
<path d="M71.5788 27.4094L71.6428 27.1247L71.4414 27.3448L71.5788 27.4094Z" fill="#CAEFFF"/>
<path d="M71.4141 26.3855L71.4268 26.6409C71.796 26.5763 71.7001 26.4652 71.4141 26.3855Z" fill="#CAEFFF"/>
<path d="M75.8389 26.2218L76.2719 26.1104L75.9763 26.0458C75.9923 26.145 75.89 26.1947 75.8389 26.2218Z" fill="#CAEFFF"/>
<path d="M79.1836 25.2676C78.4981 25.1174 78.1705 25.3727 77.4227 25.0301C77.0328 25.2825 77.5584 25.6057 77.3795 25.8551C77.7214 25.9603 77.7278 25.4553 78.1321 25.4057C78.2264 25.6957 78.717 25.3743 79.0558 25.5666C79.043 25.4494 79.0718 25.3322 79.1836 25.2676Z" fill="#CAEFFF"/>
<path d="M80.8485 27.0075C81.0818 27.1548 81.4429 27.1367 81.5611 27.3531C81.4349 27.4673 81.2608 27.4328 81.1425 27.3096C81.0179 27.6672 81.4381 27.4237 81.5404 27.7738C81.5436 27.7302 81.4908 27.6206 81.6107 27.601C82.1844 28.0503 82.1444 27.628 82.7133 28.4168C82.8891 28.4439 82.9898 28.5401 83.1608 28.3613C83.3078 28.9623 83.1671 28.7158 83.3205 29.4115C83.426 29.3093 83.5714 28.9338 83.8239 28.749C84.0237 29.7827 84.4567 29.5182 84.5318 30.1868C84.4775 30.1402 84.3592 30.1163 84.3001 29.9615C83.9533 30.2575 84.6916 30.313 84.7603 30.6631L84.4119 30.8104C84.5989 31.0478 85.0672 31.4144 84.9889 31.8666H84.7747C85.441 32.412 85.561 33.3346 85.9237 33.9085L85.8118 34.2992C86.3919 35.082 85.644 33.4157 86.4142 33.8935C85.7574 34.17 86.8265 34.2812 86.6284 34.8762C86.3983 35.1722 86.3887 34.3893 86.1266 34.7229C86.4989 34.7574 86.2801 34.9724 86.4319 35.2218C86.0851 35.2248 86.4926 35.7911 86.0819 35.6889L86.884 36.5544C86.6923 36.7302 86.7274 37.0037 86.7802 37.2096C86.7786 36.6807 87.2916 37.3418 87.4402 36.7168C87.1573 35.8393 86.8441 34.4043 86.5788 33.318C86.0931 33.345 86.3471 32.6404 85.9301 32.6014L86.2864 32.325C85.9189 31.6969 86.1202 32.5683 85.8853 32.4691C85.7255 32.1987 85.8422 31.8817 86.0196 31.8411C85.8055 31.3709 85.8742 31.8351 85.5242 31.7028L85.8374 31.195C85.0192 29.7481 83.41 28.2516 82.0645 26.9459L81.9942 27.263C81.3262 26.7086 80.5033 27.045 80.099 26.2502L79.7538 26.4079C79.9456 26.3163 79.7906 25.9362 80.0894 25.8175C79.8194 25.8356 79.6196 25.6447 79.3528 25.6538L79.7171 25.9333C79.3415 26.0775 79.0922 25.8251 79.0523 25.5727C78.3667 25.6583 79.276 26.2037 79.2968 26.4817C80.3131 26.2623 79.8896 27.1893 80.6247 27.3997C81.1377 27.5003 80.7414 27.1337 80.8485 27.0075Z" fill="#CAEFFF"/>
<path d="M80.2558 25.7905L80.0928 25.821L80.2558 25.7905Z" fill="#CAEFFF"/>
<path d="M86.7837 37.2081L86.8061 37.4394C86.8892 37.5191 86.83 37.393 86.7837 37.2081Z" fill="#CAEFFF"/>
<path d="M79.0557 25.5666V25.5726L79.0631 25.5695L79.0557 25.5666Z" fill="#CAEFFF"/>
<path d="M78.4629 26.1947L78.6818 26.2369L78.6786 26.0895L78.4629 26.1947Z" fill="#CAEFFF"/>
<path d="M86.189 39.4332L86.3536 39.4705L86.189 39.4332Z" fill="#CAEFFF"/>
<path d="M82.0728 43.4338L82.2006 43.3834L82.0728 43.4338Z" fill="#CAEFFF"/>
<path d="M80.6396 36.1397C80.9097 35.7956 81.2963 35.3613 81.3778 34.9601L81.4609 35.1045C81.5872 34.8956 82.0586 34.2646 81.4641 34.3217L81.4562 34.5005C81.1557 35.0114 80.9576 34.538 80.5373 34.7318C80.1666 35.1255 80.3471 35.7701 79.8853 35.9504C79.7367 36.0916 79.6488 35.9534 79.6104 35.8242C79.2045 36.0826 79.4044 36.5483 79.2206 36.8128C78.233 36.0465 78.42 38.0072 77.3557 37.9892C77.1576 38.3949 76.6926 38.7962 76.5488 39.3686C76.4689 38.9689 76.1955 39.7681 75.9654 39.4917C76.5375 39.9409 74.9284 40.9448 75.7801 41.2933C75.4317 41.98 75.8057 41.3023 75.6123 42.1737C75.5085 42.1827 75.4973 42.0235 75.4749 41.9619C75.3087 42.3841 75.9031 42.4427 75.518 42.8543C75.7897 43.529 75.8025 42.8814 76.2403 43.0977C76.5615 43.7077 76.333 43.6206 76.3298 44.2246C76.6574 43.9812 76.9594 44.3298 77.3893 44.3163C77.3126 44.2547 76.9402 43.9677 77.303 43.9722C77.9598 44.4065 77.947 44.0399 78.6501 43.9933C78.9425 44.5012 77.9325 43.9195 78.503 44.3598C77.9581 44.5596 77.6386 44.387 77.2311 44.5327C77.8383 44.994 78.837 44.8842 79.5433 44.7114C79.9668 44.7264 79.3388 44.9549 79.676 44.9579C80.4909 45.0751 80.7594 44.3824 81.3555 44.3884L81.3043 44.6558C81.56 44.2591 82.6163 44.3599 83.1596 43.8701C83.0237 43.7965 82.9343 43.7468 82.979 43.6386C83.2779 44.19 83.6726 42.9895 84.4348 42.967C84.1616 42.68 84.5627 42.1947 84.7512 41.9078C84.9206 41.8987 85.0244 42.028 85.0995 42.1016C84.4923 42.3571 84.9382 42.8259 84.577 43.2661C84.8599 42.9055 85.5502 42.5268 85.6173 42.0776L85.742 42.3795C86.2837 41.9738 85.4895 41.5397 86.0824 41.2002L86.2533 41.3639C86.974 40.3332 87.6004 38.775 87.0459 37.7773C86.8525 37.6947 86.4067 38.165 86.2565 38.1741C86.4466 38.7315 86.6129 39.0725 86.7119 39.5533L86.354 39.4708C86.5809 39.612 86.6081 40.1813 86.8621 39.9379C86.9325 40.3481 86.5569 40.1409 86.541 40.5751C86.2054 40.4143 86.2836 40.1965 85.9608 40.0883L85.9896 40.4429C85.9049 40.3046 85.7692 40.5691 85.6829 40.4249C85.7564 41.1205 85.1922 41.1085 84.9333 41.6374L85.2258 41.4285C85.4096 41.5667 85.2498 41.702 85.1715 41.8417C84.8167 41.7681 84.772 41.8627 84.4524 41.9859C84.3725 42.2969 84.4124 42.6515 84.0609 42.8874C83.9043 42.5147 83.3689 43.1022 83.1165 42.8257C83.2283 43.1953 82.4533 43.275 82.498 43.4974C82.3254 43.6612 82.0218 43.7559 81.9435 43.55L82.0746 43.4328L81.862 43.4944L81.8669 43.4059C81.6799 43.4464 81.7725 43.7108 81.4657 43.6027C81.4338 43.5065 81.5649 43.4704 81.6543 43.4027C81.1558 43.4643 80.9447 44.2457 80.4302 43.9722C80.3871 44.154 79.7767 44.2397 79.954 44.6274C79.7623 44.5042 79.7974 44.1781 79.3596 44.2862C79.0959 44.6589 78.885 44.1134 78.5398 44.3042C79.016 44.0052 78.5686 44.208 78.9585 43.9135C78.7476 43.6957 78.1931 44.2336 77.7888 43.9346L77.8239 43.6522C77.6481 43.6927 77.2965 43.8279 77.3253 43.5289L77.1911 43.7318C76.929 43.559 76.7404 43.1099 76.7516 42.7718C76.5583 42.7508 76.2595 42.7341 76.1173 42.6515C76.6478 42.0234 75.9703 41.5276 75.9127 40.8619C76.0294 40.6561 76.2547 40.3812 76.349 40.4278L76.4129 40.7103C76.5759 40.4263 76.9371 40.2144 76.7022 39.8673C76.8108 39.5413 77.0936 39.8178 77.303 39.6615C77.2582 38.7961 78.8706 38.3875 78.4216 37.7249C78.2059 37.9157 77.6737 38.177 77.3796 38.6458C77.3892 38.47 77.1847 38.458 77.2982 38.2852C77.6066 37.8074 78.0924 37.854 78.3768 37.3702L78.73 37.7759C79.7815 37.5129 79.5082 36.0285 80.6396 36.1397Z" fill="#CAEFFF"/>
<path d="M76.25 41.2229L76.6686 40.9853L76.429 40.9418C76.4178 41.056 76.3714 41.1552 76.25 41.2229Z" fill="#CAEFFF"/>
<path d="M76.4284 40.9419L76.4124 40.7088L76.3677 40.9297L76.4284 40.9419Z" fill="#CAEFFF"/>
<path d="M81.8218 35.0925C81.9081 35.0609 82.0758 34.9934 82.1813 34.8461C82.0455 34.8641 81.841 34.9783 81.8218 35.0925Z" fill="#CAEFFF"/>
<path d="M82.1028 34.7018L81.8823 34.7533L81.8983 34.8184L82.1028 34.7018Z" fill="#CAEFFF"/>
<path d="M92.9597 30.101L93.6693 29.8425C93.7732 30.0123 94.585 29.8892 94.2893 30.1417C94.7767 29.757 95.5629 30.4121 95.3679 29.775C93.3209 29.44 90.2495 29.3557 88.1913 30.5787L88.4694 30.2497C87.5042 31.0595 86.7069 30.3819 86.1827 31.5178L86.0996 31.0626C85.5291 31.2068 85.4652 32.1038 84.7157 31.9716L84.8644 32.0979L84.5144 32.212L84.6103 32.2496C84.377 32.6042 84.1677 32.711 83.7682 32.8101C83.6627 32.7049 83.8864 32.6628 83.9663 32.5697C83.7314 32.5426 83.6499 32.9513 83.3958 33.103C83.1209 33.1271 83.2776 32.9392 83.2696 32.8716C82.6368 33.5176 82.0216 33.3945 81.9209 34.278C81.9497 34.4072 82.2517 34.3245 82.0248 34.5544C82.632 34.3876 82.8509 33.9114 83.1801 33.4621L83.0571 33.5447C83.0139 32.7754 83.4134 33.4831 83.8256 32.8927C83.824 33.2037 83.5731 33.3569 83.5556 33.5357C84.5064 33.5327 84.2939 32.6342 85.0897 32.8927L85.0513 32.9392C85.184 32.9332 85.2862 32.7169 85.4156 32.5937L85.0113 32.6056C85.128 32.4614 85.0578 32.1804 85.0498 32.0482C85.3854 32.1985 85.2223 31.8018 85.5946 31.7687C85.8279 31.9475 85.47 32.1069 85.4364 32.2857L85.6921 31.9475C86.0037 31.7687 86.1443 32.0422 86.3633 32.0888C86.5342 31.7717 86.1412 32.0423 86.2291 31.6787C86.734 31.8259 88.1866 31.1468 88.8706 30.693C88.6165 30.7982 88.861 30.9695 88.5382 31.0341C88.6612 31.0311 89.032 30.8283 88.9744 30.6284C89.4602 30.3324 90.1904 30.2873 90.7162 30.3579L90.5356 30.1912C90.916 29.781 91.6702 30.3384 92.41 30.074L92.3925 30.0711C92.6338 29.9944 92.8591 29.5225 93.3354 29.6683C93.1867 29.8982 92.9406 29.8575 92.9597 30.101Z" fill="#CAEFFF"/>
<path d="M95.7582 30.0425L95.437 30.2544C95.6847 30.3806 96.1305 30.1221 96.1289 29.9343C95.926 29.9433 95.7086 29.7616 95.6319 29.9073C95.6543 29.9539 95.624 30.0515 95.7582 30.0425Z" fill="#CAEFFF"/>
<path d="M100.549 32.0468L100.793 31.8935C99.801 31.3976 98.5897 30.8343 98.2365 30.5052C97.9169 30.2859 97.6724 30.6434 97.2042 30.5608L97.1131 30.2167C96.8271 30.2573 96.1448 29.7975 96.2694 30.3024C96.2854 30.349 96.5618 30.1462 96.7472 30.2844L96.6562 30.4256L97.1371 30.5548L96.9166 30.6841C97.4167 31.2009 97.5926 30.3024 98.2973 30.7952L98.1087 31.1558C98.6153 31.3707 98.9109 31.4053 99.2081 31.8396C99.2081 31.8396 99.3136 31.6667 99.1921 31.6923C99.1234 31.6307 99.101 31.4308 99.2192 31.3572C100.109 31.4744 98.986 31.5074 99.4014 31.9236C100.173 31.9882 101.444 32.5021 101.556 32.9919C101.429 32.6133 101.99 32.6659 102.307 32.8973C102.367 33.1121 102.054 33.0234 101.93 33.091C102.054 33.2232 102.112 33.384 102.3 33.435C102.243 33.13 102.556 32.9648 103 33.091C102.363 32.3773 101.308 32.5682 100.549 32.0468Z" fill="#CAEFFF"/>
<path d="M100.984 31.9027L100.793 31.8935L101.113 32.0875L100.984 31.9027Z" fill="#CAEFFF"/>
</g>
</svg>
