<svg width="132" height="105" viewBox="0 0 132 105" fill="none" xmlns="http://www.w3.org/2000/svg">
<path d="M53.9121 100.02H73.0009L71.0869 93.233L60.4211 94.2679L60.1574 86.6403H67.8161L68.2415 82.1503L59.6697 82.8592L59.423 75.5067L67.4958 76.0511L68.481 71.1995L55.096 70.9769L53.9121 100.02Z" fill="#FF9670"/>
<path d="M71.2812 77.578L78.2113 77.5213L76.8346 100.127L84.5118 99.9305L83.888 77.6503H89.3478L90.8521 72.0005L72.1971 71.0988L71.2812 77.578Z" fill="#FF9670"/>
<path d="M29.5151 95.8105L25.3355 95.4532L25.7126 70.5743L16.8643 71.4859L19.4886 95.2887L8.59174 94.8549L8.32513 71.4859L1.62908 71.5994L0.222656 100.736L21.974 99.8794L21.8818 104.603H26.8695L29.5151 95.8105Z" fill="#FF9670"/>
<path d="M47.8921 84.1663C47.3222 83.7141 44.5986 82.9003 43.9791 82.5984C48.5414 79.6636 54.5868 68.113 31.9976 70.4155L32.1521 100.241C36.4026 100.448 44.7759 100.444 47.98 97.8974C49.9592 96.3152 51.0863 94.343 51.1785 91.835C51.3202 88.6323 50.2101 86.0633 47.8921 84.1663ZM38.2244 73.6763C42.6634 72.9079 43.5027 75.2302 43.5453 76.9301C43.6062 79.1049 41.7801 80.6659 38.2967 81.009L38.2244 73.6763ZM46.2971 91.6876C45.4961 96.0628 41.0429 95.7112 38.7787 95.8275L38.8212 85.3786C40.6048 85.4948 42.913 85.9074 44.464 87.1919C45.757 88.2524 46.6459 89.7523 46.2971 91.6876Z" fill="#FF9670"/>
<path d="M89.9883 87.5632C89.4453 94.5826 90.812 100.636 96.4022 101.847C102.653 103.187 106.665 97.5415 107.516 89.4404C108.869 76.4849 105.514 71.8956 101.01 71.1541C96.3625 70.5742 90.7567 75.2018 89.9883 87.5632ZM94.9816 90.1578C94.1196 82.7259 96.7241 77.1611 99.958 77.5099C102.615 77.8019 104.099 80.3469 103.293 88.3034C102.829 92.8927 99.8431 95.0675 98.1645 94.9711C95.9301 94.8364 95.1744 92.7551 94.9816 90.1578Z" fill="#FF9670"/>
<path d="M123.965 83.3937C125.637 81.6881 127.116 80.4589 127.116 77.8601C127.116 74.4064 124.599 70.4282 117.713 70.6167C117.713 70.6167 113.567 70.6168 110.64 70.8054L111.529 77.3299L110.393 100.34C116.875 100.34 122.302 100.34 122.302 100.34C127.619 100.34 131.153 96.5335 131.153 91.3388C131.155 87.0246 127.62 84.8809 123.965 83.3937ZM115.196 74.8516C116.672 74.7765 118.435 74.7765 118.435 74.7765C119.687 74.7056 122.304 75.4485 122.304 77.1909C122.304 78.9036 121.525 81.5165 117.896 81.7661C117.896 81.7661 116.271 81.7661 115.106 81.7661L115.196 74.8516ZM119.774 95.8402C119.774 95.8402 117.609 95.8402 116.087 95.8402L116.324 86.4248C118.253 86.31 120.543 86.31 120.543 86.31C122.302 86.2391 125.455 88.8209 125.455 91.2708C125.455 93.7207 123.965 95.8402 119.774 95.8402Z" fill="#FF9670"/>
<path d="M107.105 43.3107C103.232 43.634 99.8942 46.5815 99.605 55.3107C99.4193 60.7733 102.178 64.7061 107.58 64.0412C112.43 63.4443 114.251 59.4406 114.564 54.7195C115.285 46.4043 111.075 43.0967 107.105 43.3107ZM106.728 59.8248C105.241 59.8347 102.867 58.125 103.015 54.7521C103.252 48.8925 104.868 47.0961 107.235 46.9827C110.129 46.848 112.318 51.0475 110.676 56.4548C110.197 58.3475 108.717 59.8134 106.728 59.8248Z" fill="#FF9670"/>
<path d="M99.1871 43.9005L85.5156 45.2871L85.0889 48.297L90.3714 48.2232L90.0751 63.3791L94.9791 63.4954L93.981 47.8659L98.9758 48.0914L99.1871 43.9005Z" fill="#FF9670"/>
<path d="M82.5678 57.4642C82.314 59.3469 80.1759 60.1579 79.0474 60.1607C77.261 60.165 75.5413 56.7865 75.5328 53.106C75.5299 49.0895 77.977 46.6523 79.935 46.1334C81.8589 45.6131 82.2629 47.0946 82.6216 47.1896L84.4945 44.2393C82.9491 42.701 80.8267 42.796 80.8267 42.796C76.236 42.5989 71.9473 46.8749 71.5971 53.3427C71.1916 61.1447 74.7402 63.8724 78.571 63.8483C81.5313 63.8356 84.0805 62.1215 85.2416 59.0662L82.5678 57.4642Z" fill="#FF9670"/>
<path d="M42.2735 57.8824L44.0657 57.8328L48.6039 48.8726L48.4436 63.786L54.6932 63.4415L52.1455 43.2213L48.4436 43.4482L43.3156 53.4406L37.1001 43.2539L33.6919 43.3178L33.4097 64.2482L38.8568 63.7619L37.5141 46.4765L42.2735 57.8824Z" fill="#FF9670"/>
<path d="M24.706 49.5333C28.2192 48.694 28.3255 46.7105 28.2873 46.0144C28.1143 42.4558 21.5558 43.4638 14.7505 43.3816V64.7331C24.0935 64.9302 31.3042 63.952 31.4673 57.0786C31.5282 54.8258 29.6384 50.978 24.706 49.5333ZM18.8322 45.2502C23.4498 45.0475 24.6464 46.2128 24.024 47.1202C22.4304 49.4482 18.6536 49.054 18.6536 49.054L18.8322 45.2502ZM26.3662 56.3158C26.1762 59.7979 20.3223 59.3286 18.0397 59.2492L18.5401 51.4572C24.9754 52.3489 26.5094 53.9935 26.3662 56.3158Z" fill="#FF9670"/>
<path d="M70.2647 58.8324L60.6565 59.2732L60.6962 53.2166L68.233 53.4874L67.9552 49.9429L60.4963 49.9203L60.4113 46.1958L68.4925 46.2313L69.4722 43.4297L57.1192 43.5375L56.8711 63.7619L70.8587 63.3862L70.2647 58.8324Z" fill="#FF9670"/>
<path d="M41.6995 38.9355L41.6215 28.6127L36.2113 28.6736L37.6872 0.905337L11.7506 0.56366L10.0139 7.02299L17.4599 6.57639C18.1362 10.7361 16.951 17.3755 11.7166 27.7464L2.54932 27.7422L4.52565 41.5597L11.1352 40.6622L11.141 33.7932L35.1026 33.7748L33.9471 39.1212L41.6995 38.9355ZM19.1839 28.2001C20.1069 23.3003 21.8437 16.23 21.8592 6.15817L29.5379 5.84202L29.7689 28.4837L19.1839 28.2001Z" fill="#FF9670"/>
<path d="M93.2009 10.8652L84.4391 10.7362L85.3195 34.6056L75.7326 34.8182L77.3347 10.2995L68.1504 10.7134L68.6579 5.18418L93.1881 3.7395L93.2009 10.8652Z" fill="#FF9670"/>
<path d="M68.6781 27.5126L52.6928 28.9303L52.4418 20.7116L64.2774 20.5499L64.8445 15.1369L52.3355 16.0584L52.2179 9.36519L64.076 9.81321L65.3478 5.16433L46.5511 3.89264L45.0581 34.3902H69.8576L68.6781 27.5126Z" fill="#FF9670"/>
<path d="M102.374 35.3385L114.921 13.6879L114.673 34.8806L123.92 34.2923L122.2 19.0272L122.177 4.54899L116.438 4.67377L103.928 23.5229L103.257 4.02299L97.0346 3.59625L97.7393 10.3576L94.5933 34.7729L102.374 35.3385Z" fill="#FF9670"/>
</svg>
