<svg width="410" height="60" viewBox="0 0 410 60" fill="none" xmlns="http://www.w3.org/2000/svg">
<rect opacity="0.95" width="410" height="60" fill="#58CAFF"/>
<g clip-path="url(#clip0_188_6919)">
<path d="M278.033 39.4512H290.737L289.467 34.5367L282.366 35.2837L282.189 29.7575H287.29L287.575 26.509L281.864 27.0214L281.7 21.6943L287.076 22.0886L287.733 18.5737L278.823 18.2382L278.033 39.4512Z" fill="#F8F8F8"/>
<path d="M289.595 23.1073L294.206 23.0682L293.292 39.5296L298.4 39.3863L297.99 23.1606H301.62L302.625 19.1522L290.204 18.6753L289.595 23.1073Z" fill="#F8F8F8"/>
<path d="M261.793 36.4016L258.926 36.142L259.344 18.21L254.282 18.6943L255.366 36.0245L247.865 35.7122L247.688 18.3434L243.23 18.4249L242.297 39.7965L256.853 39L256.712 42.772H260.032L261.793 36.4016Z" fill="#F8F8F8"/>
<path d="M274.026 27.9704C273.645 27.638 271.832 27.0483 271.422 26.831C274.455 24.7065 278.481 16.3365 263.442 18.0037L263.55 39.6141C266.378 39.7629 271.954 39.758 274.082 37.909C275.402 36.7659 276.154 35.3376 276.215 33.5241C276.307 31.2019 275.57 29.3412 274.026 27.9704ZM267.176 20.37C270.541 19.8123 271.103 21.4923 271.135 22.7259C271.176 24.3019 269.959 25.4321 267.225 25.6806L267.176 20.37ZM272.962 33.4145C272.43 36.5829 269.468 36.3319 267.545 36.4157L267.576 28.8466C269.177 28.928 270.709 29.2292 271.746 30.158C272.604 30.9282 273.195 32.0137 272.962 33.4145Z" fill="#F8F8F8"/>
<path d="M302.051 30.4285C301.685 35.512 302.596 39.9006 306.319 40.7773C310.48 41.7465 313.151 37.6549 313.716 31.7865C314.618 22.4002 312.386 19.0769 309.387 18.5424C306.294 18.1218 302.561 21.4739 302.051 30.4285ZM305.373 32.3069C304.8 26.9247 306.536 22.8912 308.686 23.1465C310.454 23.3577 311.442 25.2018 310.903 30.9655C310.596 34.2894 308.609 35.8634 307.49 35.7912C306.005 35.6932 305.503 34.189 305.373 32.3069Z" fill="#F8F8F8"/>
<path d="M324.667 27.4078C325.777 26.1741 326.765 25.2802 326.765 23.3982C326.765 20.8996 325.087 18.0171 320.502 18.1518C320.502 18.1518 317.747 18.1518 315.796 18.2877L316.386 24.322L315.632 39.6827C319.947 39.6827 323.557 39.6827 323.557 39.6827C327.098 39.6827 329.451 36.9251 329.451 33.1629C329.451 30.0373 327.099 28.4865 324.667 27.4078ZM319.406 21.2192C319.812 21.1678 320.985 21.1678 320.985 21.1678C321.819 21.1126 323.558 21.652 323.558 22.9139C323.558 24.1567 323.042 26.0467 320.627 26.228C320.627 26.228 319.544 26.228 319.344 26.228L319.406 21.2192ZM321.879 36.4237C321.879 36.4237 320.437 36.4237 319.422 36.4237L319.578 29.6014C320.862 29.5212 322.391 29.5212 322.391 29.5212C323.558 29.4667 325.658 31.3396 325.658 33.1151C325.657 34.89 324.667 36.4237 321.879 36.4237Z" fill="#F8F8F8"/>
<path d="M230.152 37.8974C232.762 37.6194 235.382 35.981 235.482 27.6864C235.538 23.037 233.976 19.699 230.328 20.2635C227.057 20.7717 225.736 24.177 225.41 28.1957C224.726 35.2647 227.478 38.0774 230.152 37.8974ZM230.497 23.3449C231.497 23.337 233.109 24.7904 233.049 27.6582C232.96 32.6437 231.892 34.1688 230.301 34.2662C228.362 34.3813 226.837 30.8082 227.884 26.2102C228.181 24.6019 229.159 23.3559 230.497 23.3449Z" fill="#F8F8F8"/>
<path d="M225.246 21.0361L215.87 22.1633L215.57 24.5382L219.178 24.4004L218.66 36.96L222.08 37.0549L221.772 24.2847L225.181 24.3784L225.246 21.0361Z" fill="#F8F8F8"/>
<path d="M213.656 32.3008C213.479 33.8063 211.988 34.4565 211.203 34.4577C209.956 34.4645 208.758 31.7535 208.752 28.811C208.744 25.5986 210.456 23.6449 211.821 23.2286C213.162 22.8128 213.443 23.9963 213.698 24.0728L215.002 21.7126C213.924 20.482 212.444 20.5555 212.444 20.5555C209.243 20.3994 206.252 23.823 206.004 29.0039C205.723 35.2457 208.197 37.4302 210.871 37.4106C212.936 37.3996 214.713 36.0288 215.523 33.5804L213.656 32.3008Z" fill="#F8F8F8"/>
<path d="M185.561 32.3027L186.812 32.2635L189.973 25.2882L189.863 36.9655L193.986 36.7188L192.441 20.8892L189.863 20.9113L186.286 28.8447L181.948 20.9113L179.73 20.9645L179.531 37.2631L183.02 36.9655L182.085 23.5059L185.561 32.3027Z" fill="#F8F8F8"/>
<path d="M173.696 25.6427C176.148 25.0084 176.067 23.512 176.041 22.9886C175.916 20.3088 171.373 20.7545 167.067 21.0049V37.0953C173.271 37.2435 178.063 36.5057 178.181 31.3249C178.222 29.6308 177.139 26.7331 173.696 25.6427ZM169.917 22.5508C172.899 22.3947 173.36 23.089 173.225 23.9253C172.966 25.5306 169.712 25.4308 169.712 25.4308L169.917 22.5508ZM174.936 31.1676C174.799 33.8816 170.643 33.5988 169.204 33.5394L169.554 27.3031C173.885 27.9943 175.032 29.3608 174.936 31.1676Z" fill="#F8F8F8"/>
<path d="M205.079 33.0435L198.38 33.3876L198.404 28.6715L203.662 28.8802L203.468 26.1215L198.265 26.1043L198.206 23.2041L203.841 23.2323L204.525 21.0484L195.912 20.8892L195.739 36.8817L205.491 36.5921L205.079 33.0435Z" fill="#F8F8F8"/>
<path d="M106.09 43.0831L106.038 35.6045L102.438 35.6449L103.42 15.5314L86.1553 15.2847L84.9982 19.9653L89.9558 19.642C90.4053 22.6525 89.6153 27.4598 86.1316 34.9763L80.0283 34.9714L81.3456 44.981L85.7464 44.3321L85.7511 39.3563L101.702 39.3423L100.93 43.2147L106.09 43.0831ZM91.1008 35.3045C91.7139 31.7541 92.8746 26.6345 92.8862 19.3402L97.9952 19.1088L98.1484 35.5121L91.1008 35.3045Z" fill="#F8F8F8"/>
<path d="M139.96 22.7461L134.131 22.6561L134.714 39.9441L128.335 40.1002L129.4 22.3365L123.29 22.4614L123.623 18.633L139.954 17.6718L139.96 22.7461Z" fill="#F8F8F8"/>
<path d="M123.886 34.8067L113.243 35.8341L113.077 29.8794L120.957 29.7655L121.336 25.8416L113.005 26.5102L112.925 21.6612L120.823 21.9869L121.671 18.6178L109.158 17.697L108.16 39.7892H124.669L123.886 34.8067Z" fill="#F8F8F8"/>
<path d="M145.406 40.1002L153.754 24.791L153.592 40.1455L159.749 39.7157L158.604 28.6598L158.587 18.1751L154.768 18.2645L146.438 31.9163L145.993 17.7925L142.014 17.6578L142.487 22.3788L140.227 40.1002H145.406Z" fill="#F8F8F8"/>
</g>
<defs>
<clipPath id="clip0_188_6919">
<rect width="250" height="30" fill="white" transform="translate(80 15)"/>
</clipPath>
</defs>
</svg>
